<svg xmlns="http://www.w3.org/2000/svg" xmlns:xlink="http://www.w3.org/1999/xlink" width="1000" zoomAndPan="magnify" viewBox="0 0 750 749.999995" height="1000" preserveAspectRatio="xMidYMid meet" version="1.0"><defs><clipPath id="438afb99ce"><path d="M 37.5 97 L 477 97 L 477 305 L 37.5 305 Z M 37.5 97 " clip-rule="nonzero"/></clipPath><clipPath id="6ec6080747"><path d="M 109 184 L 712.5 184 L 712.5 392 L 109 392 Z M 109 184 " clip-rule="nonzero"/></clipPath><clipPath id="5a06da738b"><path d="M 37.5 445 L 477 445 L 477 652.734375 L 37.5 652.734375 Z M 37.5 445 " clip-rule="nonzero"/></clipPath></defs><g clip-path="url(#438afb99ce)"><path fill="#000000" d="M 373.089844 304.265625 L 53.914062 304.265625 C 44.839844 304.265625 37.488281 296.917969 37.488281 287.847656 C 37.488281 278.777344 44.839844 271.425781 53.914062 271.425781 L 373.089844 271.425781 C 412.027344 271.425781 443.71875 239.765625 443.71875 200.835938 C 443.71875 161.917969 412.039062 130.242188 373.089844 130.242188 C 334.152344 130.242188 302.460938 161.902344 302.460938 200.835938 C 302.460938 209.902344 295.109375 217.253906 286.035156 217.253906 C 276.960938 217.253906 269.605469 209.902344 269.605469 200.835938 C 269.605469 173.207031 280.371094 147.230469 299.914062 127.695312 C 319.457031 108.164062 345.449219 97.402344 373.089844 97.402344 C 400.730469 97.402344 426.722656 108.164062 446.265625 127.695312 C 465.808594 147.230469 476.574219 173.207031 476.574219 200.835938 C 476.574219 228.460938 465.808594 254.4375 446.265625 273.972656 C 426.722656 293.503906 400.730469 304.265625 373.089844 304.265625 Z M 373.089844 304.265625 " fill-opacity="1" fill-rule="nonzero"/></g><g clip-path="url(#6ec6080747)"><path fill="#000000" d="M 609.027344 391.277344 L 125.652344 391.277344 C 116.578125 391.277344 109.226562 383.929688 109.226562 374.859375 C 109.226562 365.789062 116.578125 358.441406 125.652344 358.441406 L 609.027344 358.441406 C 647.964844 358.441406 679.65625 326.777344 679.65625 287.847656 C 679.65625 248.929688 647.980469 217.253906 609.027344 217.253906 C 570.078125 217.253906 538.398438 248.914062 538.398438 287.847656 C 538.398438 296.917969 531.046875 304.265625 521.972656 304.265625 C 512.898438 304.265625 505.542969 296.917969 505.542969 287.847656 C 505.542969 260.21875 516.3125 234.242188 535.855469 214.710938 C 555.398438 195.175781 581.386719 184.414062 609.027344 184.414062 C 636.671875 184.414062 662.660156 195.175781 682.203125 214.710938 C 701.746094 234.242188 712.511719 260.21875 712.511719 287.847656 C 712.511719 315.476562 701.746094 341.453125 682.203125 360.984375 C 662.660156 380.53125 636.671875 391.277344 609.027344 391.277344 Z M 609.027344 391.277344 " fill-opacity="1" fill-rule="nonzero"/></g><g clip-path="url(#5a06da738b)"><path fill="#000000" d="M 373.089844 652.332031 C 345.449219 652.332031 319.457031 641.570312 299.914062 622.035156 C 280.371094 602.503906 269.605469 576.527344 269.605469 548.898438 C 269.605469 539.828125 276.960938 532.476562 286.035156 532.476562 C 295.109375 532.476562 302.460938 539.828125 302.460938 548.898438 C 302.460938 587.816406 334.140625 619.492188 373.089844 619.492188 C 412.027344 619.492188 443.71875 587.828125 443.71875 548.898438 C 443.71875 509.980469 412.039062 478.304688 373.089844 478.304688 L 53.914062 478.304688 C 44.839844 478.304688 37.488281 470.953125 37.488281 461.886719 C 37.488281 452.816406 44.839844 445.464844 53.914062 445.464844 L 373.089844 445.464844 C 400.730469 445.464844 426.722656 456.226562 446.265625 475.761719 C 465.808594 495.292969 476.574219 521.269531 476.574219 548.898438 C 476.574219 576.527344 465.808594 602.503906 446.265625 622.035156 C 426.722656 641.570312 400.730469 652.332031 373.089844 652.332031 Z M 373.089844 652.332031 " fill-opacity="1" fill-rule="nonzero"/></g></svg>