<svg xmlns="http://www.w3.org/2000/svg" xmlns:xlink="http://www.w3.org/1999/xlink" width="1000" zoomAndPan="magnify" viewBox="0 0 750 749.999995" height="1000" preserveAspectRatio="xMidYMid meet" version="1.0"><defs><clipPath id="96b379eba3"><path d="M 157 39 L 609 39 L 609 728.511719 L 157 728.511719 Z M 157 39 " clip-rule="nonzero"/></clipPath></defs><g clip-path="url(#96b379eba3)"><path fill="#000000" d="M 264.179688 39.277344 L 259.1875 39.277344 C 236.488281 39.632812 214.035156 42.167969 191.832031 46.886719 L 161.582031 53.425781 C 160.949219 53.558594 160.355469 53.796875 159.800781 54.136719 C 159.25 54.480469 158.773438 54.902344 158.367188 55.410156 C 157.960938 55.917969 157.65625 56.480469 157.445312 57.09375 C 157.234375 57.707031 157.132812 58.339844 157.144531 58.988281 C 157.152344 59.636719 157.273438 60.265625 157.5 60.871094 C 157.726562 61.480469 158.050781 62.03125 158.46875 62.527344 C 158.890625 63.023438 159.378906 63.433594 159.941406 63.757812 C 160.503906 64.082031 161.105469 64.304688 161.742188 64.417969 L 192.285156 70.050781 C 196.800781 70.890625 201.296875 71.828125 205.773438 72.859375 C 210.25 73.894531 214.699219 75.019531 219.128906 76.246094 C 223.554688 77.46875 227.953125 78.785156 232.324219 80.199219 C 236.695312 81.609375 241.035156 83.113281 245.339844 84.710938 C 249.648438 86.308594 253.917969 88 258.152344 89.78125 C 262.382812 91.5625 266.578125 93.429688 270.730469 95.390625 C 274.886719 97.351562 278.996094 99.402344 283.0625 101.539062 C 287.128906 103.675781 291.144531 105.894531 295.117188 108.207031 C 299.085938 110.515625 303.007812 112.90625 306.875 115.382812 C 310.742188 117.859375 314.554688 120.417969 318.3125 123.058594 C 322.074219 125.699219 325.773438 128.417969 329.414062 131.214844 C 333.054688 134.015625 336.636719 136.890625 340.15625 139.839844 C 343.671875 142.792969 347.128906 145.820312 350.515625 148.917969 C 353.90625 152.019531 357.226562 155.1875 360.480469 158.429688 C 363.730469 161.671875 366.914062 164.984375 370.023438 168.363281 C 373.136719 171.742188 376.171875 175.183594 379.136719 178.691406 C 382.097656 182.203125 384.984375 185.773438 387.796875 189.402344 C 390.605469 193.035156 393.339844 196.726562 395.988281 200.476562 C 398.640625 204.226562 401.210938 208.03125 403.703125 211.890625 C 406.191406 215.75 408.59375 219.660156 410.917969 223.621094 C 413.238281 227.585938 415.472656 231.59375 417.621094 235.652344 C 419.773438 239.710938 421.832031 243.8125 423.808594 247.960938 C 425.78125 252.105469 427.664062 256.292969 429.457031 260.519531 C 431.253906 264.746094 432.953125 269.011719 434.566406 273.3125 C 436.175781 277.613281 437.695312 281.945312 439.121094 286.308594 C 440.546875 290.675781 441.878906 295.070312 443.113281 299.492188 C 444.351562 303.914062 445.492188 308.359375 446.539062 312.832031 C 447.585938 317.300781 448.539062 321.792969 449.390625 326.304688 C 450.246094 330.816406 451 335.34375 451.660156 339.890625 C 452.320312 344.433594 452.882812 348.992188 453.347656 353.558594 C 453.8125 358.128906 454.179688 362.703125 454.445312 367.289062 C 454.714844 371.871094 454.886719 376.460938 454.957031 381.050781 C 457.09375 533.761719 350.4375 667.65625 201.335938 699.363281 L 170.953125 705.820312 C 170.3125 705.949219 169.710938 706.179688 169.148438 706.519531 C 168.585938 706.855469 168.097656 707.277344 167.6875 707.789062 C 167.273438 708.296875 166.957031 708.859375 166.742188 709.476562 C 166.527344 710.097656 166.425781 710.734375 166.433594 711.386719 C 166.441406 712.042969 166.558594 712.675781 166.789062 713.289062 C 167.019531 713.902344 167.347656 714.460938 167.773438 714.957031 C 168.199219 715.457031 168.695312 715.867188 169.265625 716.191406 C 169.835938 716.515625 170.441406 716.734375 171.085938 716.84375 L 201.601562 722.503906 C 222.199219 726.304688 242.96875 728.199219 263.914062 728.1875 L 268.933594 728.1875 C 458.90625 725.519531 611.214844 568.777344 608.519531 378.914062 C 605.929688 191.191406 451.59375 39.277344 264.179688 39.277344 Z M 494.148438 607.207031 C 490.5 610.984375 486.761719 614.671875 482.929688 618.265625 C 479.097656 621.859375 475.179688 625.355469 471.175781 628.753906 C 467.175781 632.152344 463.089844 635.453125 458.921875 638.648438 C 454.753906 641.847656 450.511719 644.9375 446.191406 647.925781 C 441.871094 650.914062 437.480469 653.792969 433.019531 656.566406 C 428.558594 659.335938 424.03125 661.996094 419.4375 664.542969 C 414.84375 667.089844 410.1875 669.519531 405.472656 671.839844 C 400.761719 674.15625 395.992188 676.355469 391.167969 678.4375 C 386.347656 680.519531 381.476562 682.480469 376.554688 684.320312 C 371.636719 686.160156 366.675781 687.878906 361.667969 689.472656 C 356.664062 691.070312 351.625 692.539062 346.546875 693.886719 C 341.46875 695.234375 336.363281 696.453125 331.222656 697.546875 C 326.085938 698.640625 320.925781 699.605469 315.738281 700.445312 C 310.554688 701.285156 305.351562 701.996094 300.128906 702.578125 C 294.910156 703.160156 289.679688 703.609375 284.433594 703.933594 C 279.191406 704.257812 273.945312 704.449219 268.691406 704.515625 C 267.222656 704.515625 265.753906 704.515625 264.261719 704.515625 C 393.742188 651.5625 480.507812 522.285156 478.582031 380.625 C 476.660156 238.960938 385.972656 112.273438 255.023438 63.03125 L 264.179688 63.03125 C 438.777344 63.03125 582.488281 204.480469 585.023438 379.316406 C 585.109375 384.5625 585.066406 389.808594 584.890625 395.054688 C 584.714844 400.300781 584.410156 405.539062 583.976562 410.769531 C 583.542969 416 582.980469 421.21875 582.289062 426.417969 C 581.597656 431.621094 580.777344 436.804688 579.832031 441.964844 C 578.882812 447.128906 577.808594 452.265625 576.605469 457.375 C 575.402344 462.480469 574.078125 467.558594 572.625 472.601562 C 571.171875 477.644531 569.59375 482.648438 567.894531 487.613281 C 566.191406 492.582031 564.371094 497.5 562.425781 502.375 C 560.480469 507.25 558.417969 512.074219 556.238281 516.847656 C 554.054688 521.621094 551.753906 526.339844 549.339844 531 C 546.921875 535.660156 544.394531 540.257812 541.75 544.789062 C 539.105469 549.324219 536.351562 553.792969 533.488281 558.191406 C 530.625 562.589844 527.652344 566.914062 524.574219 571.167969 C 521.5 575.417969 518.316406 579.589844 515.03125 583.6875 C 511.746094 587.78125 508.363281 591.792969 504.882812 595.71875 C 501.398438 599.644531 497.820312 603.484375 494.148438 607.234375 Z M 494.148438 607.207031 " fill-opacity="1" fill-rule="nonzero"/></g></svg>