<svg xmlns="http://www.w3.org/2000/svg" xmlns:xlink="http://www.w3.org/1999/xlink" width="1000" zoomAndPan="magnify" viewBox="0 0 750 749.999995" height="1000" preserveAspectRatio="xMidYMid meet" version="1.0"><defs><clipPath id="558f54e65f"><path d="M 140 39 L 592 39 L 592 728.511719 L 140 728.511719 Z M 140 39 " clip-rule="nonzero"/></clipPath></defs><g clip-path="url(#558f54e65f)"><path fill="#000000" d="M 586.910156 703.019531 L 556.316406 697.441406 C 551.796875 696.605469 547.300781 695.675781 542.824219 694.648438 C 538.34375 693.621094 533.890625 692.496094 529.460938 691.277344 C 525.035156 690.058594 520.632812 688.746094 516.261719 687.335938 C 511.886719 685.929688 507.546875 684.425781 503.238281 682.832031 C 498.929688 681.238281 494.65625 679.554688 490.421875 677.773438 C 486.183594 675.996094 481.988281 674.128906 477.832031 672.171875 C 473.675781 670.214844 469.566406 668.167969 465.496094 666.035156 C 461.429688 663.898438 457.410156 661.679688 453.4375 659.371094 C 449.464844 657.066406 445.542969 654.675781 441.671875 652.199219 C 437.804688 649.726562 433.988281 647.167969 430.230469 644.527344 C 426.46875 641.890625 422.765625 639.171875 419.125 636.375 C 415.480469 633.578125 411.898438 630.703125 408.378906 627.75 C 404.859375 624.800781 401.40625 621.773438 398.015625 618.675781 C 394.625 615.574219 391.300781 612.402344 388.046875 609.160156 C 384.796875 605.917969 381.613281 602.609375 378.5 599.230469 C 375.390625 595.851562 372.351562 592.40625 369.386719 588.898438 C 366.425781 585.386719 363.539062 581.816406 360.726562 578.183594 C 357.917969 574.550781 355.1875 570.859375 352.535156 567.109375 C 349.882812 563.359375 347.3125 559.554688 344.824219 555.691406 C 342.335938 551.832031 339.933594 547.917969 337.613281 543.957031 C 335.292969 539.992188 333.058594 535.980469 330.910156 531.921875 C 328.761719 527.859375 326.703125 523.757812 324.730469 519.609375 C 322.757812 515.460938 320.878906 511.269531 319.085938 507.042969 C 317.292969 502.8125 315.59375 498.546875 313.984375 494.246094 C 312.378906 489.945312 310.863281 485.609375 309.4375 481.242188 C 308.015625 476.875 306.6875 472.480469 305.457031 468.058594 C 304.222656 463.632812 303.082031 459.183594 302.042969 454.710938 C 301 450.238281 300.050781 445.746094 299.203125 441.234375 C 298.351562 436.71875 297.601562 432.191406 296.945312 427.644531 C 296.289062 423.097656 295.734375 418.539062 295.273438 413.972656 C 294.816406 409.402344 294.453125 404.824219 294.191406 400.238281 C 293.929688 395.652344 293.765625 391.066406 293.699219 386.472656 C 293.632812 381.882812 293.667969 377.289062 293.796875 372.699219 C 293.929688 368.109375 294.160156 363.523438 294.488281 358.941406 C 294.816406 354.359375 295.242188 349.789062 295.765625 345.226562 C 296.292969 340.664062 296.914062 336.113281 297.632812 331.578125 C 298.355469 327.042969 299.171875 322.523438 300.085938 318.023438 C 301 313.523438 302.011719 309.042969 303.117188 304.585938 C 304.222656 300.128906 305.425781 295.699219 306.722656 291.292969 C 308.019531 286.886719 309.410156 282.511719 310.894531 278.164062 C 312.382812 273.820312 313.957031 269.507812 315.628906 265.226562 C 317.300781 260.949219 319.058594 256.707031 320.910156 252.507812 C 322.765625 248.304688 324.707031 244.140625 326.738281 240.023438 C 328.769531 235.902344 330.886719 231.828125 333.09375 227.800781 C 335.296875 223.773438 337.589844 219.792969 339.964844 215.863281 C 342.34375 211.933594 344.804688 208.054688 347.347656 204.230469 C 349.890625 200.40625 352.515625 196.636719 355.21875 192.925781 C 357.925781 189.214844 360.707031 185.5625 363.570312 181.96875 C 366.433594 178.375 369.371094 174.847656 372.382812 171.382812 C 375.398438 167.914062 378.484375 164.515625 381.644531 161.179688 C 384.804688 157.847656 388.035156 154.582031 391.332031 151.386719 C 394.632812 148.191406 398 145.070312 401.433594 142.019531 C 404.867188 138.96875 408.367188 135.992188 411.929688 133.089844 C 415.488281 130.191406 419.113281 127.367188 422.796875 124.621094 C 426.476562 121.878906 430.21875 119.210938 434.015625 116.628906 C 437.8125 114.042969 441.664062 111.539062 445.570312 109.121094 C 449.476562 106.703125 453.429688 104.367188 457.4375 102.117188 C 461.441406 99.867188 465.492188 97.707031 469.589844 95.628906 C 473.6875 93.554688 477.828125 91.566406 482.011719 89.671875 C 486.195312 87.773438 490.417969 85.964844 494.679688 84.25 C 498.941406 82.53125 503.238281 80.90625 507.566406 79.375 C 511.898438 77.84375 516.261719 76.402344 520.652344 75.058594 C 525.046875 73.714844 529.464844 72.464844 533.910156 71.308594 C 538.355469 70.152344 542.828125 69.09375 547.316406 68.128906 L 577.699219 61.671875 C 578.34375 61.550781 578.949219 61.328125 579.511719 60.996094 C 580.078125 60.664062 580.570312 60.246094 580.988281 59.746094 C 581.410156 59.242188 581.730469 58.679688 581.953125 58.066406 C 582.175781 57.449219 582.285156 56.8125 582.285156 56.160156 C 582.285156 55.503906 582.175781 54.871094 581.953125 54.253906 C 581.730469 53.636719 581.410156 53.078125 580.988281 52.574219 C 580.570312 52.070312 580.078125 51.65625 579.511719 51.324219 C 578.949219 50.992188 578.34375 50.765625 577.699219 50.648438 L 547.183594 44.992188 C 541.316406 43.910156 535.425781 42.980469 529.511719 42.203125 C 523.597656 41.429688 517.664062 40.808594 511.714844 40.339844 C 505.769531 39.871094 499.8125 39.558594 493.847656 39.402344 C 487.886719 39.242188 481.921875 39.238281 475.957031 39.390625 C 469.992188 39.542969 464.035156 39.847656 458.089844 40.308594 C 452.140625 40.769531 446.207031 41.382812 440.292969 42.152344 C 434.375 42.917969 428.484375 43.839844 422.613281 44.914062 C 416.746094 45.992188 410.910156 47.214844 405.105469 48.59375 C 399.300781 49.972656 393.535156 51.5 387.808594 53.175781 C 382.085938 54.851562 376.40625 56.675781 370.777344 58.648438 C 365.144531 60.621094 359.570312 62.738281 354.050781 65 C 348.527344 67.261719 343.070312 69.664062 337.675781 72.207031 C 332.28125 74.753906 326.953125 77.433594 321.699219 80.257812 C 316.441406 83.078125 311.261719 86.035156 306.160156 89.125 C 301.054688 92.214844 296.039062 95.433594 291.101562 98.785156 C 286.167969 102.136719 281.320312 105.613281 276.566406 109.214844 C 271.8125 112.816406 267.152344 116.539062 262.59375 120.386719 C 258.03125 124.230469 253.574219 128.1875 249.21875 132.265625 C 244.863281 136.339844 240.613281 140.527344 236.476562 144.824219 C 232.339844 149.121094 228.316406 153.519531 224.40625 158.027344 C 220.496094 162.53125 216.707031 167.132812 213.035156 171.835938 C 209.367188 176.539062 205.820312 181.332031 202.398438 186.21875 C 198.980469 191.105469 195.6875 196.074219 192.523438 201.132812 C 189.359375 206.191406 186.332031 211.324219 183.4375 216.539062 C 180.539062 221.753906 177.78125 227.039062 175.160156 232.398438 C 172.539062 237.753906 170.058594 243.175781 167.71875 248.664062 C 165.378906 254.148438 163.183594 259.695312 161.132812 265.292969 C 159.082031 270.894531 157.175781 276.542969 155.417969 282.242188 C 153.660156 287.941406 152.050781 293.683594 150.589844 299.464844 C 149.132812 305.25 147.824219 311.066406 146.664062 316.917969 C 145.507812 322.769531 144.503906 328.644531 143.652344 334.546875 C 142.800781 340.449219 142.101562 346.371094 141.558594 352.3125 C 141.011719 358.25 140.621094 364.199219 140.386719 370.160156 C 140.152344 376.117188 140.070312 382.078125 140.144531 388.042969 C 140.21875 394.007812 140.449219 399.964844 140.832031 405.917969 C 141.21875 411.867188 141.753906 417.804688 142.449219 423.730469 C 143.140625 429.652344 143.988281 435.554688 144.984375 441.433594 C 145.984375 447.316406 147.136719 453.164062 148.4375 458.984375 C 149.742188 464.804688 151.195312 470.585938 152.800781 476.332031 C 154.402344 482.078125 156.152344 487.777344 158.054688 493.429688 C 159.953125 499.082031 162 504.683594 164.1875 510.230469 C 166.378906 515.777344 168.714844 521.265625 171.1875 526.691406 C 173.664062 532.117188 176.28125 537.476562 179.035156 542.765625 C 181.789062 548.058594 184.675781 553.273438 187.703125 558.414062 C 190.726562 563.554688 193.882812 568.613281 197.171875 573.589844 C 200.460938 578.566406 203.875 583.453125 207.417969 588.253906 C 210.960938 593.050781 214.625 597.757812 218.410156 602.367188 C 222.195312 606.972656 226.101562 611.480469 230.121094 615.886719 C 234.140625 620.292969 238.273438 624.59375 242.515625 628.785156 C 246.761719 632.976562 251.109375 637.054688 255.566406 641.023438 C 260.023438 644.988281 264.578125 648.835938 269.234375 652.566406 C 273.890625 656.292969 278.640625 659.898438 283.484375 663.382812 C 288.324219 666.863281 293.257812 670.21875 298.273438 673.445312 C 303.289062 676.671875 308.390625 679.765625 313.566406 682.730469 C 318.746094 685.691406 323.996094 688.515625 329.320312 691.207031 C 334.648438 693.894531 340.039062 696.445312 345.496094 698.855469 C 350.953125 701.261719 356.46875 703.53125 362.046875 705.652344 C 367.621094 707.777344 373.246094 709.753906 378.925781 711.582031 C 384.601562 713.414062 390.324219 715.097656 396.089844 716.628906 C 401.855469 718.164062 407.65625 719.546875 413.496094 720.777344 C 419.332031 722.011719 425.195312 723.089844 431.089844 724.019531 C 436.984375 724.945312 442.898438 725.722656 448.832031 726.34375 C 454.765625 726.964844 460.710938 727.429688 466.667969 727.742188 C 472.625 728.054688 478.585938 728.210938 484.554688 728.214844 L 489.546875 728.214844 C 512.207031 727.894531 534.625 725.386719 556.796875 720.6875 L 587.203125 714.09375 C 587.839844 713.960938 588.433594 713.722656 588.984375 713.378906 C 589.535156 713.039062 590.015625 712.617188 590.421875 712.109375 C 590.824219 711.601562 591.132812 711.039062 591.34375 710.425781 C 591.550781 709.8125 591.652344 709.179688 591.644531 708.53125 C 591.632812 707.882812 591.515625 707.253906 591.285156 706.648438 C 591.058594 706.039062 590.734375 705.488281 590.316406 704.992188 C 589.898438 704.496094 589.40625 704.085938 588.84375 703.761719 C 588.28125 703.4375 587.683594 703.214844 587.042969 703.097656 Z M 489.066406 704.539062 L 484.554688 704.539062 C 309.953125 704.539062 166.191406 563.09375 163.707031 388.308594 C 163.632812 383.0625 163.691406 377.8125 163.875 372.566406 C 164.058594 367.320312 164.371094 362.082031 164.808594 356.851562 C 165.25 351.617188 165.820312 346.402344 166.515625 341.199219 C 167.214844 335.996094 168.039062 330.8125 168.988281 325.648438 C 169.941406 320.488281 171.019531 315.351562 172.222656 310.238281 C 173.425781 305.128906 174.753906 300.054688 176.207031 295.007812 C 177.660156 289.964844 179.234375 284.957031 180.933594 279.988281 C 182.632812 275.023438 184.453125 270.097656 186.394531 265.222656 C 188.332031 260.34375 190.390625 255.515625 192.570312 250.738281 C 194.746094 245.960938 197.039062 241.238281 199.449219 236.574219 C 201.859375 231.910156 204.382812 227.308594 207.015625 222.765625 C 209.652344 218.226562 212.394531 213.753906 215.25 209.347656 C 218.105469 204.941406 221.066406 200.605469 224.132812 196.34375 C 227.203125 192.085938 230.371094 187.902344 233.644531 183.796875 C 236.917969 179.691406 240.289062 175.667969 243.757812 171.726562 C 247.230469 167.789062 250.792969 163.933594 254.453125 160.167969 C 258.113281 156.40625 261.863281 152.730469 265.703125 149.148438 C 269.542969 145.570312 273.46875 142.085938 277.480469 138.695312 C 281.492188 135.308594 285.582031 132.019531 289.753906 128.832031 C 293.925781 125.644531 298.175781 122.558594 302.496094 119.578125 C 306.820312 116.601562 311.214844 113.730469 315.679688 110.964844 C 320.144531 108.199219 324.675781 105.546875 329.269531 103.007812 C 333.863281 100.464844 338.519531 98.039062 343.234375 95.722656 C 347.945312 93.410156 352.714844 91.214844 357.539062 89.136719 C 362.359375 87.054688 367.230469 85.097656 372.148438 83.257812 C 377.066406 81.414062 382.027344 79.695312 387.027344 78.101562 C 392.03125 76.503906 397.070312 75.03125 402.144531 73.679688 C 407.21875 72.328125 412.324219 71.105469 417.457031 70.003906 C 422.59375 68.90625 427.753906 67.933594 432.933594 67.085938 C 438.117188 66.242188 443.316406 65.523438 448.535156 64.929688 C 453.753906 64.339844 458.984375 63.878906 464.222656 63.542969 C 469.464844 63.207031 474.710938 63.003906 479.960938 62.925781 L 484.421875 62.925781 C 354.914062 115.875 268.175781 245.152344 270.070312 386.84375 C 271.964844 528.53125 362.628906 655.246094 493.578125 704.433594 C 492.054688 704.460938 490.640625 704.539062 489.066406 704.539062 Z M 489.066406 704.539062 " fill-opacity="1" fill-rule="nonzero"/></g></svg>