<svg xmlns="http://www.w3.org/2000/svg" xmlns:xlink="http://www.w3.org/1999/xlink" width="1000" zoomAndPan="magnify" viewBox="0 0 750 749.999995" height="1000" preserveAspectRatio="xMidYMid meet" version="1.0"><defs><clipPath id="f16196f8ce"><path d="M 24 39 L 715 39 L 715 728.511719 L 24 728.511719 Z M 24 39 " clip-rule="nonzero"/></clipPath><clipPath id="00d42df5c1"><path d="M 38.242188 54.546875 L 695.992188 54.546875 L 695.992188 712.296875 L 38.242188 712.296875 Z M 38.242188 54.546875 " clip-rule="nonzero"/></clipPath></defs><g clip-path="url(#f16196f8ce)"><path fill="#000000" d="M 369.5625 39.277344 L 364.492188 39.277344 C 360.261719 39.339844 356.039062 39.476562 351.8125 39.695312 C 347.589844 39.910156 343.375 40.203125 339.164062 40.574219 C 334.949219 40.945312 330.746094 41.394531 326.550781 41.921875 C 322.355469 42.445312 318.171875 43.050781 314 43.730469 C 309.824219 44.410156 305.664062 45.164062 301.519531 46 C 297.375 46.832031 293.246094 47.742188 289.132812 48.726562 C 285.023438 49.710938 280.929688 50.769531 276.855469 51.90625 C 272.785156 53.042969 268.734375 54.253906 264.707031 55.535156 C 260.675781 56.820312 256.671875 58.179688 252.695312 59.613281 C 248.71875 61.042969 244.765625 62.546875 240.84375 64.125 C 236.921875 65.703125 233.027344 67.351562 229.167969 69.074219 C 225.304688 70.792969 221.476562 72.585938 217.679688 74.445312 C 213.882812 76.308594 210.121094 78.238281 206.398438 80.238281 C 202.671875 82.238281 198.984375 84.304688 195.335938 86.441406 C 191.6875 88.578125 188.078125 90.78125 184.511719 93.046875 C 180.941406 95.316406 177.417969 97.648438 173.9375 100.046875 C 170.453125 102.445312 167.019531 104.90625 163.625 107.433594 C 160.234375 109.957031 156.890625 112.542969 153.597656 115.191406 C 150.300781 117.839844 147.054688 120.546875 143.859375 123.3125 C 140.660156 126.082031 137.515625 128.90625 134.425781 131.789062 C 131.332031 134.671875 128.292969 137.609375 125.308594 140.605469 C 122.328125 143.601562 119.398438 146.648438 116.527344 149.75 C 113.65625 152.855469 110.839844 156.007812 108.085938 159.214844 C 105.332031 162.421875 102.632812 165.675781 100 168.980469 C 97.363281 172.285156 94.789062 175.640625 92.277344 179.039062 C 89.765625 182.4375 87.316406 185.882812 84.929688 189.375 C 82.546875 192.863281 80.226562 196.398438 77.96875 199.972656 C 75.714844 203.546875 73.527344 207.164062 71.402344 210.820312 C 69.28125 214.476562 67.226562 218.171875 65.242188 221.902344 C 63.253906 225.632812 61.339844 229.398438 59.492188 233.203125 C 57.644531 237.003906 55.867188 240.839844 54.160156 244.707031 C 52.457031 248.574219 50.820312 252.472656 49.257812 256.398438 C 47.695312 260.328125 46.207031 264.28125 44.789062 268.265625 C 43.371094 272.25 42.03125 276.253906 40.761719 280.289062 C 39.492188 284.320312 38.296875 288.375 37.175781 292.449219 C 36.058594 296.523438 35.011719 300.621094 34.042969 304.734375 C 33.074219 308.847656 32.179688 312.980469 31.363281 317.128906 C 30.546875 321.273438 29.804688 325.4375 29.140625 329.609375 C 28.476562 333.785156 27.890625 337.96875 27.382812 342.167969 C 26.871094 346.363281 26.441406 350.566406 26.085938 354.777344 C 25.730469 358.992188 25.453125 363.207031 25.253906 367.429688 C 25.054688 371.652344 24.933594 375.875 24.886719 380.101562 C 24.84375 384.328125 24.878906 388.554688 24.988281 392.78125 C 25.101562 397.007812 25.292969 401.230469 25.558594 405.449219 C 25.824219 409.664062 26.171875 413.878906 26.59375 418.082031 C 27.015625 422.289062 27.515625 426.484375 28.089844 430.671875 C 28.667969 434.859375 29.320312 439.035156 30.050781 443.199219 C 30.78125 447.363281 31.589844 451.511719 32.472656 455.644531 C 33.355469 459.777344 34.316406 463.894531 35.351562 467.992188 C 36.386719 472.09375 37.496094 476.167969 38.679688 480.226562 C 39.867188 484.285156 41.125 488.320312 42.460938 492.332031 C 43.792969 496.339844 45.199219 500.328125 46.679688 504.285156 C 48.160156 508.246094 49.714844 512.175781 51.339844 516.078125 C 52.964844 519.980469 54.660156 523.851562 56.429688 527.691406 C 58.195312 531.53125 60.035156 535.335938 61.941406 539.109375 C 63.851562 542.882812 65.828125 546.617188 67.875 550.316406 C 69.917969 554.015625 72.03125 557.675781 74.210938 561.296875 C 76.390625 564.917969 78.636719 568.5 80.949219 572.039062 C 83.261719 575.578125 85.640625 579.074219 88.082031 582.523438 C 90.519531 585.976562 93.023438 589.382812 95.589844 592.742188 C 98.15625 596.101562 100.785156 599.410156 103.472656 602.671875 C 106.160156 605.9375 108.910156 609.148438 111.714844 612.308594 C 114.523438 615.472656 117.386719 618.582031 120.308594 621.636719 C 123.226562 624.691406 126.203125 627.695312 129.238281 630.640625 C 133.195312 634.507812 137.25 638.277344 141.390625 641.949219 C 145.535156 645.621094 149.765625 649.1875 154.078125 652.65625 C 158.394531 656.121094 162.792969 659.480469 167.273438 662.734375 C 171.753906 665.984375 176.308594 669.128906 180.9375 672.160156 C 185.570312 675.191406 190.273438 678.109375 195.046875 680.914062 C 199.820312 683.71875 204.65625 686.40625 209.5625 688.976562 C 214.464844 691.542969 219.425781 693.992188 224.449219 696.320312 C 229.472656 698.652344 234.546875 700.855469 239.675781 702.941406 C 244.808594 705.023438 249.984375 706.980469 255.207031 708.8125 C 260.433594 710.644531 265.699219 712.347656 271.003906 713.925781 C 276.3125 715.5 281.652344 716.949219 287.03125 718.265625 C 292.40625 719.582031 297.8125 720.769531 303.25 721.824219 C 308.683594 722.878906 314.140625 723.804688 319.621094 724.59375 C 325.101562 725.386719 330.59375 726.042969 336.105469 726.566406 C 341.617188 727.089844 347.140625 727.480469 352.667969 727.738281 C 358.199219 727.996094 363.734375 728.117188 369.269531 728.105469 L 374.34375 728.105469 C 378.570312 728.046875 382.796875 727.910156 387.019531 727.695312 C 391.242188 727.480469 395.460938 727.1875 399.675781 726.816406 C 403.886719 726.445312 408.089844 725.996094 412.289062 725.472656 C 416.484375 724.945312 420.667969 724.34375 424.84375 723.664062 C 429.015625 722.984375 433.175781 722.230469 437.324219 721.394531 C 441.46875 720.5625 445.597656 719.65625 449.710938 718.671875 C 453.824219 717.6875 457.917969 716.625 461.992188 715.492188 C 466.066406 714.355469 470.117188 713.144531 474.148438 711.863281 C 478.175781 710.578125 482.179688 709.21875 486.160156 707.785156 C 490.136719 706.355469 494.089844 704.851562 498.011719 703.273438 C 501.9375 701.695312 505.832031 700.046875 509.695312 698.328125 C 513.554688 696.605469 517.386719 694.816406 521.183594 692.953125 C 524.980469 691.089844 528.742188 689.160156 532.46875 687.160156 C 536.195312 685.160156 539.882812 683.09375 543.53125 680.957031 C 547.179688 678.820312 550.789062 676.617188 554.359375 674.351562 C 557.925781 672.082031 561.453125 669.746094 564.933594 667.347656 C 568.417969 664.949219 571.855469 662.488281 575.246094 659.964844 C 578.640625 657.4375 581.984375 654.851562 585.28125 652.203125 C 588.574219 649.554688 591.824219 646.847656 595.019531 644.082031 C 598.214844 641.3125 601.363281 638.488281 604.453125 635.605469 C 607.546875 632.71875 610.585938 629.78125 613.570312 626.785156 C 616.554688 623.789062 619.484375 620.742188 622.355469 617.636719 C 625.226562 614.535156 628.042969 611.378906 630.796875 608.171875 C 633.554688 604.964844 636.25 601.710938 638.886719 598.40625 C 641.523438 595.097656 644.097656 591.746094 646.609375 588.34375 C 649.121094 584.945312 651.570312 581.496094 653.957031 578.007812 C 656.339844 574.515625 658.660156 570.984375 660.917969 567.40625 C 663.171875 563.832031 665.359375 560.214844 667.484375 556.558594 C 669.605469 552.898438 671.660156 549.207031 673.644531 545.472656 C 675.632812 541.738281 677.546875 537.972656 679.394531 534.167969 C 681.242188 530.367188 683.019531 526.53125 684.726562 522.664062 C 686.433594 518.792969 688.066406 514.894531 689.628906 510.964844 C 691.191406 507.039062 692.679688 503.082031 694.097656 499.097656 C 695.511719 495.113281 696.855469 491.105469 698.125 487.074219 C 699.394531 483.042969 700.589844 478.984375 701.707031 474.910156 C 702.828125 470.832031 703.871094 466.738281 704.839844 462.621094 C 705.808594 458.507812 706.703125 454.375 707.519531 450.226562 C 708.335938 446.078125 709.074219 441.917969 709.738281 437.742188 C 710.402344 433.566406 710.988281 429.378906 711.496094 425.183594 C 712.003906 420.984375 712.4375 416.78125 712.792969 412.566406 C 713.144531 408.355469 713.421875 404.136719 713.621094 399.914062 C 713.820312 395.691406 713.941406 391.464844 713.984375 387.238281 C 714.027344 383.011719 713.992188 378.785156 713.878906 374.558594 C 713.765625 370.332031 713.578125 366.109375 713.308594 361.890625 C 713.039062 357.671875 712.695312 353.457031 712.269531 349.25 C 711.847656 345.042969 711.347656 340.847656 710.769531 336.660156 C 710.191406 332.472656 709.535156 328.296875 708.804688 324.132812 C 708.074219 319.96875 707.265625 315.820312 706.378906 311.683594 C 705.496094 307.550781 704.535156 303.433594 703.5 299.335938 C 702.460938 295.234375 701.351562 291.15625 700.164062 287.101562 C 698.976562 283.042969 697.714844 279.007812 696.382812 274.996094 C 695.046875 270.984375 693.636719 267 692.15625 263.039062 C 690.675781 259.078125 689.121094 255.148438 687.492188 251.246094 C 685.867188 247.34375 684.167969 243.472656 682.398438 239.632812 C 680.628906 235.792969 678.789062 231.988281 676.882812 228.214844 C 674.972656 224.441406 672.992188 220.707031 670.945312 217.007812 C 668.898438 213.308594 666.785156 209.648438 664.601562 206.027344 C 662.421875 202.402344 660.171875 198.824219 657.859375 195.285156 C 655.542969 191.746094 653.167969 188.25 650.722656 184.800781 C 648.28125 181.347656 645.777344 177.945312 643.207031 174.585938 C 640.640625 171.226562 638.011719 167.914062 635.320312 164.652344 C 632.628906 161.390625 629.882812 158.179688 627.074219 155.019531 C 624.265625 151.859375 621.398438 148.75 618.476562 145.695312 C 615.554688 142.636719 612.574219 139.636719 609.542969 136.691406 C 605.582031 132.828125 601.53125 129.058594 597.386719 125.390625 C 593.242188 121.722656 589.015625 118.15625 584.699219 114.691406 C 580.382812 111.230469 575.984375 107.871094 571.507812 104.621094 C 567.027344 101.371094 562.472656 98.230469 557.84375 95.199219 C 553.210938 92.171875 548.507812 89.253906 543.738281 86.453125 C 538.964844 83.648438 534.128906 80.964844 529.226562 78.398438 C 524.324219 75.828125 519.359375 73.382812 514.339844 71.054688 C 509.320312 68.726562 504.242188 66.523438 499.117188 64.441406 C 493.988281 62.359375 488.8125 60.402344 483.589844 58.574219 C 478.367188 56.742188 473.101562 55.039062 467.796875 53.460938 C 462.492188 51.886719 457.152344 50.441406 451.777344 49.125 C 446.398438 47.804688 440.996094 46.621094 435.5625 45.566406 C 430.128906 44.511719 424.675781 43.585938 419.195312 42.796875 C 413.71875 42.003906 408.226562 41.347656 402.714844 40.824219 C 397.207031 40.296875 391.6875 39.90625 386.15625 39.648438 C 380.628906 39.390625 375.097656 39.269531 369.5625 39.277344 Z M 599.585938 607.316406 C 595.941406 611.144531 592.203125 614.878906 588.371094 618.523438 C 584.542969 622.167969 580.625 625.71875 576.621094 629.167969 C 572.613281 632.621094 568.527344 635.96875 564.355469 639.21875 C 560.183594 642.46875 555.9375 645.609375 551.609375 648.648438 C 547.285156 651.6875 542.886719 654.621094 538.414062 657.441406 C 533.945312 660.261719 529.40625 662.972656 524.800781 665.570312 C 520.195312 668.167969 515.527344 670.648438 510.800781 673.015625 C 506.074219 675.382812 501.289062 677.632812 496.449219 679.761719 C 491.613281 681.894531 486.722656 683.902344 481.785156 685.792969 C 476.847656 687.679688 471.867188 689.445312 466.839844 691.089844 C 461.8125 692.734375 456.75 694.25 451.648438 695.644531 C 446.550781 697.035156 441.417969 698.300781 436.253906 699.441406 C 431.089844 700.582031 425.902344 701.589844 420.691406 702.472656 C 415.476562 703.355469 410.246094 704.109375 404.992188 704.734375 C 399.742188 705.359375 394.480469 705.855469 389.207031 706.21875 C 383.929688 706.582031 378.648438 706.816406 373.363281 706.917969 C 368.078125 707.023438 362.792969 706.996094 357.507812 706.839844 C 352.222656 706.679688 346.941406 706.394531 341.671875 705.972656 C 336.402344 705.554688 331.144531 705.007812 325.898438 704.328125 C 320.65625 703.652344 315.433594 702.84375 310.226562 701.90625 C 305.023438 700.972656 299.847656 699.90625 294.695312 698.714844 C 289.542969 697.523438 284.425781 696.203125 279.339844 694.757812 C 274.253906 693.3125 269.207031 691.742188 264.199219 690.050781 C 259.191406 688.355469 254.226562 686.539062 249.308594 684.597656 C 244.386719 682.660156 239.519531 680.597656 234.703125 678.417969 C 229.886719 676.238281 225.128906 673.941406 220.425781 671.523438 C 215.722656 669.109375 211.078125 666.578125 206.5 663.933594 C 201.921875 661.289062 197.414062 658.535156 192.972656 655.667969 C 188.53125 652.800781 184.160156 649.824219 179.867188 646.742188 C 175.574219 643.65625 171.355469 640.46875 167.21875 637.179688 C 163.082031 633.886719 159.027344 630.496094 155.058594 627.003906 C 151.089844 623.511719 147.207031 619.921875 143.417969 616.238281 C 139.625 612.554688 135.925781 608.78125 132.320312 604.914062 C 128.714844 601.046875 125.207031 597.09375 121.796875 593.054688 C 118.386719 589.015625 115.078125 584.894531 111.871094 580.691406 C 108.667969 576.488281 105.566406 572.210938 102.570312 567.851562 C 99.578125 563.496094 96.691406 559.070312 93.914062 554.570312 C 91.140625 550.070312 88.476562 545.507812 85.925781 540.875 C 83.375 536.246094 80.941406 531.554688 78.625 526.804688 C 76.304688 522.054688 74.105469 517.25 72.027344 512.390625 C 69.945312 507.53125 67.984375 502.621094 66.148438 497.667969 C 64.308594 492.710938 62.59375 487.710938 61.003906 482.671875 C 59.414062 477.628906 57.949219 472.554688 56.609375 467.441406 C 55.269531 462.328125 54.054688 457.183594 52.96875 452.007812 C 51.882812 446.835938 50.925781 441.640625 50.097656 436.417969 C 49.269531 431.199219 48.570312 425.960938 48 420.707031 C 47.429688 415.449219 46.992188 410.183594 46.683594 404.910156 C 46.371094 399.632812 46.191406 394.351562 46.144531 389.066406 C 46.097656 383.777344 46.179688 378.496094 46.390625 373.214844 C 46.605469 367.933594 46.949219 362.660156 47.421875 357.394531 C 47.894531 352.128906 48.5 346.882812 49.230469 341.644531 C 49.964844 336.410156 50.828125 331.199219 51.816406 326.003906 C 52.808594 320.8125 53.925781 315.648438 55.171875 310.511719 C 56.421875 305.375 57.792969 300.273438 59.289062 295.203125 C 60.789062 290.132812 62.414062 285.105469 64.160156 280.117188 C 65.90625 275.128906 67.777344 270.183594 69.765625 265.289062 C 71.757812 260.390625 73.871094 255.546875 76.101562 250.753906 C 78.332031 245.960938 80.679688 241.226562 83.144531 236.550781 C 85.609375 231.875 88.1875 227.261719 90.882812 222.714844 C 93.574219 218.164062 96.378906 213.6875 99.292969 209.277344 C 102.207031 204.867188 105.230469 200.53125 108.359375 196.269531 C 111.488281 192.007812 114.71875 187.828125 118.054688 183.726562 C 121.390625 179.625 124.828125 175.609375 128.359375 171.675781 C 131.894531 167.746094 135.523438 163.902344 139.246094 160.152344 C 142.898438 156.371094 146.644531 152.6875 150.476562 149.09375 C 154.3125 145.5 158.234375 142.003906 162.242188 138.601562 C 166.25 135.203125 170.339844 131.902344 174.507812 128.707031 C 178.679688 125.507812 182.925781 122.417969 187.25 119.429688 C 191.574219 116.441406 195.96875 113.5625 200.4375 110.792969 C 204.902344 108.023438 209.433594 105.363281 214.03125 102.816406 C 218.628906 100.273438 223.289062 97.839844 228.003906 95.527344 C 232.722656 93.210938 237.496094 91.011719 242.324219 88.933594 C 247.148438 86.851562 252.023438 84.894531 256.949219 83.054688 C 261.871094 81.214844 266.839844 79.5 271.847656 77.90625 C 276.855469 76.3125 281.902344 74.84375 286.980469 73.5 C 292.0625 72.15625 297.175781 70.941406 302.316406 69.847656 C 307.457031 68.757812 312.625 67.796875 317.8125 66.960938 C 323 66.125 328.207031 65.417969 333.433594 64.839844 C 338.65625 64.261719 343.890625 63.8125 349.136719 63.492188 C 354.382812 63.175781 359.636719 62.984375 364.890625 62.925781 L 369.507812 62.925781 C 373.425781 62.925781 377.339844 62.996094 381.25 63.140625 C 385.164062 63.285156 389.070312 63.5 392.976562 63.785156 C 396.878906 64.074219 400.777344 64.429688 404.667969 64.859375 C 408.5625 65.289062 412.441406 65.789062 416.316406 66.363281 C 420.1875 66.933594 424.050781 67.574219 427.898438 68.289062 C 431.75 69 435.582031 69.78125 439.40625 70.636719 C 443.226562 71.488281 447.03125 72.410156 450.816406 73.402344 C 454.601562 74.394531 458.371094 75.457031 462.121094 76.585938 C 465.867188 77.714844 469.59375 78.914062 473.296875 80.179688 C 477.003906 81.445312 480.683594 82.78125 484.339844 84.179688 C 487.992188 85.582031 491.621094 87.046875 495.222656 88.582031 C 498.824219 90.117188 502.398438 91.714844 505.941406 93.378906 C 509.484375 95.042969 512.996094 96.773438 516.476562 98.5625 C 519.957031 100.355469 523.402344 102.210938 526.816406 104.132812 C 530.226562 106.050781 533.601562 108.03125 536.941406 110.074219 C 540.28125 112.117188 543.582031 114.21875 546.84375 116.382812 C 550.109375 118.542969 553.328125 120.765625 556.511719 123.046875 C 559.691406 125.328125 562.832031 127.667969 565.925781 130.0625 C 569.023438 132.457031 572.074219 134.910156 575.078125 137.417969 C 578.085938 139.925781 581.042969 142.488281 583.957031 145.101562 C 586.867188 147.71875 589.730469 150.386719 592.546875 153.105469 C 595.359375 155.828125 598.125 158.597656 600.835938 161.417969 C 603.550781 164.242188 606.210938 167.109375 608.816406 170.03125 C 611.425781 172.949219 613.980469 175.914062 616.480469 178.925781 C 618.980469 181.9375 621.421875 184.996094 623.808594 188.097656 C 626.195312 191.199219 628.527344 194.34375 630.800781 197.53125 C 633.070312 200.71875 635.285156 203.945312 637.4375 207.210938 C 639.59375 210.480469 641.6875 213.785156 643.71875 217.128906 C 645.753906 220.476562 647.722656 223.855469 649.632812 227.273438 C 651.542969 230.6875 653.390625 234.140625 655.171875 237.625 C 656.957031 241.109375 658.675781 244.625 660.328125 248.171875 C 661.984375 251.71875 663.570312 255.292969 665.09375 258.898438 C 666.621094 262.503906 668.078125 266.136719 669.46875 269.792969 C 670.859375 273.453125 672.179688 277.136719 673.4375 280.839844 C 674.691406 284.546875 675.878906 288.277344 677 292.027344 C 678.117188 295.777344 679.167969 299.546875 680.148438 303.335938 C 681.128906 307.125 682.042969 310.929688 682.882812 314.753906 C 683.726562 318.574219 684.496094 322.410156 685.199219 326.261719 C 685.902344 330.109375 686.53125 333.972656 687.089844 337.847656 C 687.652344 341.71875 688.140625 345.601562 688.558594 349.492188 C 688.976562 353.382812 689.324219 357.28125 689.597656 361.1875 C 689.875 365.089844 690.078125 368.996094 690.210938 372.910156 C 690.34375 376.820312 690.402344 380.734375 690.390625 384.648438 C 690.382812 388.558594 690.296875 392.472656 690.144531 396.382812 C 689.988281 400.292969 689.765625 404.199219 689.46875 408.101562 C 689.171875 412.003906 688.800781 415.902344 688.363281 419.789062 C 687.921875 423.679688 687.410156 427.558594 686.828125 431.429688 C 686.246094 435.296875 685.59375 439.15625 684.871094 443.003906 C 684.148438 446.847656 683.355469 450.679688 682.492188 454.5 C 681.628906 458.316406 680.695312 462.117188 679.691406 465.898438 C 678.691406 469.683594 677.621094 473.445312 676.480469 477.1875 C 675.339844 480.933594 674.128906 484.65625 672.855469 488.355469 C 671.578125 492.054688 670.234375 495.730469 668.824219 499.378906 C 667.410156 503.03125 665.933594 506.65625 664.390625 510.25 C 662.847656 513.847656 661.238281 517.414062 659.5625 520.953125 C 657.890625 524.488281 656.148438 527.996094 654.347656 531.46875 C 652.546875 534.945312 650.679688 538.382812 648.75 541.789062 C 646.824219 545.195312 644.832031 548.566406 642.78125 551.898438 C 640.726562 555.230469 638.617188 558.527344 636.445312 561.78125 C 634.269531 565.035156 632.039062 568.253906 629.75 571.425781 C 627.460938 574.601562 625.113281 577.730469 622.707031 580.820312 C 620.300781 583.90625 617.839844 586.949219 615.324219 589.949219 C 612.808594 592.949219 610.238281 595.898438 607.613281 598.800781 C 604.992188 601.707031 602.3125 604.5625 599.585938 607.367188 Z M 599.585938 607.316406 " fill-opacity="1" fill-rule="nonzero"/></g><g clip-path="url(#00d42df5c1)"><path fill="#000000" d="M 695.992188 383.421875 C 695.992188 388.804688 695.859375 394.183594 695.59375 399.5625 C 695.332031 404.9375 694.933594 410.304688 694.40625 415.660156 C 693.878906 421.015625 693.222656 426.355469 692.429688 431.679688 C 691.640625 437.003906 690.722656 442.304688 689.671875 447.585938 C 688.621094 452.863281 687.441406 458.113281 686.136719 463.332031 C 684.828125 468.554688 683.390625 473.742188 681.828125 478.890625 C 680.265625 484.042969 678.578125 489.152344 676.765625 494.21875 C 674.953125 499.285156 673.015625 504.304688 670.957031 509.277344 C 668.898438 514.25 666.71875 519.171875 664.414062 524.035156 C 662.113281 528.902344 659.695312 533.707031 657.15625 538.453125 C 654.621094 543.199219 651.96875 547.882812 649.203125 552.5 C 646.433594 557.117188 643.554688 561.660156 640.566406 566.136719 C 637.574219 570.613281 634.476562 575.011719 631.269531 579.335938 C 628.066406 583.65625 624.753906 587.898438 621.339844 592.058594 C 617.925781 596.21875 614.410156 600.292969 610.796875 604.28125 C 607.183594 608.269531 603.472656 612.167969 599.664062 615.972656 C 595.859375 619.78125 591.964844 623.488281 587.976562 627.105469 C 583.988281 630.71875 579.914062 634.234375 575.753906 637.648438 C 571.589844 641.0625 567.351562 644.371094 563.027344 647.578125 C 558.703125 650.785156 554.304688 653.882812 549.828125 656.875 C 545.355469 659.863281 540.808594 662.742188 536.191406 665.507812 C 531.574219 668.277344 526.894531 670.929688 522.148438 673.464844 C 517.398438 676.003906 512.59375 678.421875 507.726562 680.722656 C 502.863281 683.023438 497.945312 685.203125 492.972656 687.265625 C 488 689.324219 482.976562 691.261719 477.910156 693.074219 C 472.84375 694.886719 467.734375 696.574219 462.582031 698.136719 C 457.433594 699.699219 452.246094 701.136719 447.027344 702.441406 C 441.804688 703.75 436.554688 704.929688 431.277344 705.980469 C 425.996094 707.03125 420.695312 707.949219 415.371094 708.738281 C 410.046875 709.527344 404.707031 710.1875 399.351562 710.714844 C 393.996094 711.242188 388.628906 711.636719 383.253906 711.902344 C 377.878906 712.167969 372.5 712.296875 367.117188 712.296875 C 361.734375 712.296875 356.355469 712.167969 350.980469 711.902344 C 345.601562 711.636719 340.238281 711.242188 334.882812 710.714844 C 329.523438 710.1875 324.183594 709.527344 318.859375 708.738281 C 313.535156 707.949219 308.234375 707.03125 302.957031 705.980469 C 297.675781 704.929688 292.425781 703.75 287.207031 702.441406 C 281.984375 701.136719 276.800781 699.699219 271.648438 698.136719 C 266.5 696.574219 261.390625 694.886719 256.320312 693.074219 C 251.253906 691.261719 246.234375 689.324219 241.261719 687.265625 C 236.289062 685.203125 231.371094 683.023438 226.503906 680.722656 C 221.636719 678.421875 216.832031 676.003906 212.085938 673.464844 C 207.339844 670.929688 202.65625 668.277344 198.039062 665.507812 C 193.425781 662.742188 188.878906 659.863281 184.402344 656.875 C 179.925781 653.882812 175.527344 650.785156 171.207031 647.578125 C 166.882812 644.371094 162.640625 641.0625 158.480469 637.648438 C 154.320312 634.234375 150.246094 630.71875 146.257812 627.105469 C 142.269531 623.488281 138.371094 619.78125 134.566406 615.972656 C 130.761719 612.167969 127.050781 608.269531 123.4375 604.28125 C 119.820312 600.292969 116.308594 596.21875 112.890625 592.058594 C 109.476562 587.898438 106.167969 583.65625 102.960938 579.335938 C 99.753906 575.011719 96.65625 570.613281 93.667969 566.136719 C 90.675781 561.660156 87.796875 557.117188 85.03125 552.5 C 82.261719 547.882812 79.613281 543.199219 77.074219 538.453125 C 74.539062 533.707031 72.117188 528.902344 69.816406 524.035156 C 67.515625 519.171875 65.335938 514.25 63.273438 509.277344 C 61.214844 504.304688 59.277344 499.285156 57.464844 494.21875 C 55.652344 489.152344 53.964844 484.042969 52.402344 478.890625 C 50.839844 473.742188 49.40625 468.554688 48.097656 463.332031 C 46.789062 458.113281 45.609375 452.863281 44.558594 447.585938 C 43.511719 442.304688 42.589844 437.003906 41.800781 431.679688 C 41.011719 426.355469 40.351562 421.015625 39.824219 415.660156 C 39.296875 410.304688 38.902344 404.9375 38.636719 399.5625 C 38.375 394.183594 38.242188 388.804688 38.242188 383.421875 C 38.242188 378.042969 38.375 372.664062 38.636719 367.285156 C 38.902344 361.910156 39.296875 356.542969 39.824219 351.1875 C 40.351562 345.832031 41.011719 340.492188 41.800781 335.167969 C 42.589844 329.84375 43.511719 324.542969 44.558594 319.261719 C 45.609375 313.984375 46.789062 308.734375 48.097656 303.511719 C 49.40625 298.292969 50.839844 293.105469 52.402344 287.957031 C 53.964844 282.804688 55.652344 277.695312 57.464844 272.628906 C 59.277344 267.5625 61.214844 262.542969 63.273438 257.570312 C 65.335938 252.597656 67.515625 247.675781 69.816406 242.8125 C 72.117188 237.945312 74.539062 233.140625 77.074219 228.394531 C 79.613281 223.644531 82.261719 218.964844 85.03125 214.347656 C 87.796875 209.730469 90.675781 205.1875 93.667969 200.710938 C 96.65625 196.234375 99.753906 191.835938 102.960938 187.511719 C 106.167969 183.191406 109.476562 178.949219 112.890625 174.789062 C 116.308594 170.628906 119.820312 166.554688 123.4375 162.566406 C 127.050781 158.578125 130.761719 154.679688 134.566406 150.875 C 138.371094 147.066406 142.269531 143.359375 146.257812 139.742188 C 150.246094 136.128906 154.320312 132.613281 158.480469 129.199219 C 162.640625 125.785156 166.882812 122.476562 171.207031 119.269531 C 175.527344 116.0625 179.925781 112.964844 184.402344 109.972656 C 188.878906 106.984375 193.425781 104.105469 198.039062 101.339844 C 202.65625 98.570312 207.339844 95.917969 212.085938 93.382812 C 216.832031 90.84375 221.636719 88.425781 226.503906 86.125 C 231.371094 83.824219 236.289062 81.644531 241.261719 79.582031 C 246.234375 77.523438 251.253906 75.585938 256.320312 73.773438 C 261.390625 71.960938 266.5 70.273438 271.648438 68.710938 C 276.800781 67.148438 281.984375 65.710938 287.207031 64.40625 C 292.425781 63.097656 297.675781 61.917969 302.957031 60.867188 C 308.234375 59.816406 313.535156 58.898438 318.859375 58.109375 C 324.183594 57.320312 329.523438 56.660156 334.882812 56.132812 C 340.238281 55.605469 345.601562 55.210938 350.980469 54.945312 C 356.355469 54.679688 361.734375 54.546875 367.117188 54.546875 C 372.5 54.546875 377.878906 54.679688 383.253906 54.945312 C 388.628906 55.210938 393.996094 55.605469 399.351562 56.132812 C 404.707031 56.660156 410.046875 57.320312 415.371094 58.109375 C 420.695312 58.898438 425.996094 59.816406 431.277344 60.867188 C 436.554688 61.917969 441.804688 63.097656 447.027344 64.40625 C 452.246094 65.710938 457.433594 67.148438 462.582031 68.710938 C 467.734375 70.273438 472.84375 71.960938 477.910156 73.773438 C 482.976562 75.585938 488 77.523438 492.972656 79.582031 C 497.945312 81.644531 502.863281 83.824219 507.726562 86.125 C 512.59375 88.425781 517.398438 90.84375 522.148438 93.382812 C 526.894531 95.917969 531.574219 98.570312 536.191406 101.339844 C 540.808594 104.105469 545.355469 106.984375 549.828125 109.972656 C 554.304688 112.964844 558.703125 116.0625 563.027344 119.269531 C 567.351562 122.476562 571.589844 125.785156 575.753906 129.199219 C 579.914062 132.613281 583.988281 136.128906 587.976562 139.742188 C 591.964844 143.359375 595.859375 147.066406 599.664062 150.875 C 603.472656 154.679688 607.183594 158.578125 610.796875 162.566406 C 614.410156 166.554688 617.925781 170.628906 621.339844 174.789062 C 624.753906 178.949219 628.066406 183.191406 631.269531 187.511719 C 634.476562 191.835938 637.574219 196.234375 640.566406 200.710938 C 643.554688 205.1875 646.433594 209.730469 649.203125 214.347656 C 651.96875 218.964844 654.621094 223.644531 657.15625 228.394531 C 659.695312 233.140625 662.113281 237.945312 664.414062 242.8125 C 666.71875 247.675781 668.898438 252.597656 670.957031 257.570312 C 673.015625 262.542969 674.953125 267.5625 676.765625 272.628906 C 678.578125 277.695312 680.265625 282.804688 681.828125 287.957031 C 683.390625 293.105469 684.828125 298.292969 686.136719 303.511719 C 687.441406 308.734375 688.621094 313.984375 689.671875 319.261719 C 690.722656 324.542969 691.640625 329.84375 692.429688 335.167969 C 693.222656 340.492188 693.878906 345.832031 694.40625 351.1875 C 694.933594 356.542969 695.332031 361.910156 695.59375 367.285156 C 695.859375 372.664062 695.992188 378.042969 695.992188 383.421875 Z M 695.992188 383.421875 " fill-opacity="1" fill-rule="nonzero"/></g></svg>