<svg xmlns="http://www.w3.org/2000/svg" xmlns:xlink="http://www.w3.org/1999/xlink" width="1000" zoomAndPan="magnify" viewBox="0 0 750 749.999995" height="1000" preserveAspectRatio="xMidYMid meet" version="1.0"><defs><clipPath id="3b841d8cf1"><path d="M 107.484375 39 L 642.234375 39 L 642.234375 728.511719 L 107.484375 728.511719 Z M 107.484375 39 " clip-rule="nonzero"/></clipPath></defs><g clip-path="url(#3b841d8cf1)"><path fill="#000000" d="M 639.78125 662.773438 L 629.101562 657.941406 C 625.773438 656.460938 622.46875 654.921875 619.1875 653.328125 C 615.910156 651.734375 612.660156 650.082031 609.4375 648.378906 C 606.214844 646.671875 603.019531 644.914062 599.859375 643.097656 C 596.695312 641.285156 593.566406 639.417969 590.464844 637.496094 C 587.367188 635.574219 584.300781 633.601562 581.269531 631.578125 C 578.238281 629.550781 575.242188 627.476562 572.28125 625.347656 C 569.320312 623.222656 566.394531 621.042969 563.507812 618.816406 C 560.621094 616.589844 557.773438 614.316406 554.964844 611.992188 C 552.15625 609.667969 549.386719 607.296875 546.65625 604.878906 C 543.929688 602.460938 541.242188 599.996094 538.597656 597.488281 C 535.953125 594.976562 533.351562 592.425781 530.792969 589.824219 C 528.238281 587.226562 525.722656 584.585938 523.257812 581.902344 C 520.789062 579.21875 518.367188 576.496094 515.992188 573.726562 C 513.621094 570.960938 511.292969 568.15625 509.011719 565.3125 C 506.734375 562.464844 504.503906 559.582031 502.324219 556.660156 C 500.144531 553.738281 498.011719 550.78125 495.933594 547.789062 C 493.851562 544.792969 491.824219 541.765625 489.847656 538.703125 C 487.871094 535.640625 485.945312 532.542969 484.074219 529.414062 C 482.203125 526.285156 480.386719 523.125 478.625 519.9375 C 476.859375 516.746094 475.152344 513.527344 473.496094 510.277344 C 471.84375 507.027344 470.246094 503.753906 468.703125 500.449219 C 467.160156 497.148438 465.675781 493.820312 464.246094 490.464844 C 462.816406 487.113281 461.445312 483.734375 460.132812 480.335938 C 458.820312 476.933594 457.5625 473.511719 456.367188 470.070312 C 455.171875 466.625 454.03125 463.164062 452.953125 459.679688 C 451.875 456.199219 450.855469 452.699219 449.894531 449.183594 C 448.933594 445.667969 448.035156 442.136719 447.195312 438.589844 C 446.355469 435.039062 445.578125 431.480469 444.859375 427.90625 C 444.140625 424.332031 443.484375 420.746094 442.886719 417.152344 C 442.292969 413.554688 441.757812 409.949219 441.285156 406.335938 C 440.8125 402.722656 440.398438 399.101562 440.050781 395.472656 C 439.699219 391.84375 439.414062 388.210938 439.1875 384.574219 C 438.960938 380.933594 438.796875 377.292969 438.695312 373.648438 C 438.59375 370.007812 438.554688 366.363281 438.578125 362.714844 C 438.597656 359.070312 438.683594 355.429688 438.832031 351.785156 C 438.976562 348.144531 439.1875 344.503906 439.457031 340.871094 C 439.726562 337.234375 440.058594 333.605469 440.453125 329.980469 C 440.847656 326.359375 441.304688 322.742188 441.820312 319.132812 C 442.339844 315.523438 442.917969 311.925781 443.558594 308.339844 C 444.199219 304.75 444.898438 301.171875 445.660156 297.609375 C 446.421875 294.042969 447.246094 290.492188 448.128906 286.957031 C 449.011719 283.421875 449.957031 279.898438 450.957031 276.394531 C 451.960938 272.890625 453.023438 269.402344 454.144531 265.9375 C 455.269531 262.46875 456.449219 259.019531 457.6875 255.589844 C 458.925781 252.164062 460.222656 248.757812 461.578125 245.375 C 462.933594 241.988281 464.347656 238.628906 465.816406 235.292969 C 467.289062 231.957031 468.8125 228.648438 470.398438 225.363281 C 471.980469 222.082031 473.617188 218.824219 475.3125 215.597656 C 477.003906 212.367188 478.753906 209.171875 480.554688 206 C 482.359375 202.832031 484.214844 199.695312 486.125 196.589844 C 488.035156 193.484375 489.996094 190.414062 492.011719 187.375 C 494.023438 184.335938 496.089844 181.332031 498.207031 178.367188 C 500.324219 175.398438 502.488281 172.464844 504.707031 169.570312 C 506.921875 166.675781 509.1875 163.820312 511.503906 161.003906 C 513.816406 158.1875 516.175781 155.410156 518.585938 152.671875 C 520.996094 149.9375 523.449219 147.242188 525.949219 144.589844 C 528.449219 141.9375 530.996094 139.324219 533.582031 136.757812 C 536.171875 134.191406 538.804688 131.671875 541.480469 129.195312 C 544.15625 126.71875 546.871094 124.285156 549.628906 121.902344 C 552.386719 119.519531 555.1875 117.179688 558.023438 114.890625 C 560.863281 112.601562 563.738281 110.363281 566.652344 108.171875 C 569.566406 105.980469 572.515625 103.839844 575.503906 101.75 C 578.488281 99.660156 581.511719 97.621094 584.570312 95.632812 C 587.625 93.644531 590.714844 91.710938 593.835938 89.828125 L 603.957031 83.714844 C 604.390625 83.449219 604.78125 83.128906 605.128906 82.757812 C 605.476562 82.386719 605.765625 81.976562 606 81.523438 C 606.234375 81.070312 606.40625 80.597656 606.511719 80.101562 C 606.617188 79.601562 606.65625 79.097656 606.625 78.589844 C 606.539062 77.546875 606.195312 76.59375 605.601562 75.730469 C 605.003906 74.867188 604.234375 74.210938 603.289062 73.761719 L 592.449219 68.984375 C 585.875 66.0625 579.21875 63.351562 572.476562 60.847656 C 565.734375 58.347656 558.921875 56.054688 552.035156 53.980469 C 545.152344 51.902344 538.207031 50.042969 531.203125 48.402344 C 524.203125 46.761719 517.15625 45.339844 510.066406 44.136719 C 502.976562 42.9375 495.851562 41.960938 488.699219 41.203125 C 481.546875 40.449219 474.378906 39.917969 467.195312 39.613281 C 460.007812 39.304688 452.820312 39.226562 445.628906 39.367188 C 438.441406 39.511719 431.261719 39.882812 424.09375 40.472656 C 416.925781 41.066406 409.785156 41.882812 402.667969 42.925781 C 395.550781 43.964844 388.476562 45.226562 381.4375 46.710938 C 374.402344 48.191406 367.417969 49.894531 360.484375 51.816406 C 353.554688 53.734375 346.691406 55.871094 339.894531 58.222656 C 333.097656 60.570312 326.382812 63.132812 319.746094 65.902344 C 313.109375 68.671875 306.566406 71.648438 300.113281 74.828125 C 293.664062 78.007812 287.320312 81.386719 281.082031 84.964844 C 274.84375 88.542969 268.722656 92.3125 262.71875 96.273438 C 256.71875 100.234375 250.84375 104.375 245.101562 108.703125 C 239.359375 113.03125 233.757812 117.535156 228.296875 122.214844 C 222.835938 126.894531 217.527344 131.738281 212.371094 136.75 C 207.214844 141.761719 202.21875 146.929688 197.382812 152.253906 C 192.550781 157.578125 187.890625 163.046875 183.398438 168.660156 C 178.90625 174.277344 174.597656 180.027344 170.464844 185.914062 C 166.335938 191.800781 162.394531 197.808594 158.640625 203.941406 C 154.882812 210.074219 151.324219 216.316406 147.960938 222.671875 C 144.597656 229.027344 141.4375 235.480469 138.480469 242.035156 C 135.519531 248.585938 132.769531 255.226562 130.226562 261.953125 C 127.683594 268.675781 125.355469 275.476562 123.238281 282.347656 C 121.121094 289.214844 119.21875 296.148438 117.535156 303.136719 C 115.851562 310.128906 114.390625 317.164062 113.148438 324.246094 C 111.90625 331.328125 110.886719 338.441406 110.089844 345.585938 C 109.292969 352.730469 108.722656 359.894531 108.375 367.074219 C 108.023438 374.257812 107.902344 381.441406 108.003906 388.628906 C 108.082031 394.214844 108.292969 399.792969 108.644531 405.367188 C 108.992188 410.941406 109.476562 416.503906 110.097656 422.054688 C 110.71875 427.605469 111.472656 433.136719 112.363281 438.652344 C 113.25 444.164062 114.273438 449.652344 115.429688 455.117188 C 116.585938 460.582031 117.875 466.015625 119.296875 471.414062 C 120.714844 476.816406 122.269531 482.179688 123.949219 487.507812 C 125.632812 492.832031 127.441406 498.113281 129.382812 503.351562 C 131.320312 508.589844 133.386719 513.777344 135.578125 518.914062 C 137.769531 524.050781 140.085938 529.132812 142.523438 534.15625 C 144.964844 539.179688 147.523438 544.144531 150.203125 549.042969 C 152.882812 553.945312 155.683594 558.777344 158.597656 563.539062 C 161.515625 568.304688 164.542969 572.992188 167.6875 577.609375 C 170.832031 582.226562 174.085938 586.765625 177.453125 591.222656 C 180.816406 595.679688 184.289062 600.054688 187.867188 604.34375 C 191.445312 608.632812 195.125 612.832031 198.90625 616.941406 C 202.691406 621.054688 206.570312 625.070312 210.546875 628.992188 C 214.527344 632.914062 218.597656 636.734375 222.761719 640.457031 C 226.925781 644.179688 231.175781 647.800781 235.519531 651.316406 C 239.859375 654.835938 244.28125 658.242188 248.789062 661.542969 C 253.292969 664.847656 257.878906 668.035156 262.539062 671.113281 C 267.199219 674.191406 271.933594 677.15625 276.738281 680.003906 C 281.546875 682.851562 286.417969 685.582031 291.355469 688.191406 C 296.292969 690.804688 301.292969 693.292969 306.355469 695.660156 C 311.414062 698.027344 316.527344 700.273438 321.695312 702.390625 C 326.867188 704.511719 332.082031 706.503906 337.351562 708.367188 C 342.617188 710.230469 347.925781 711.96875 353.273438 713.574219 C 358.625 715.183594 364.011719 716.65625 369.433594 718.003906 C 374.855469 719.347656 380.308594 720.558594 385.789062 721.640625 C 391.269531 722.71875 396.777344 723.664062 402.304688 724.476562 C 407.832031 725.289062 413.375 725.964844 418.933594 726.507812 C 424.496094 727.050781 430.066406 727.457031 435.644531 727.726562 C 441.226562 728 446.808594 728.132812 452.394531 728.132812 L 457.386719 728.132812 C 472.566406 727.917969 487.664062 726.707031 502.679688 724.5 C 517.699219 722.292969 532.503906 719.109375 547.101562 714.945312 C 561.699219 710.785156 575.960938 705.683594 589.882812 699.636719 C 603.804688 693.59375 617.269531 686.660156 630.277344 678.839844 L 640.394531 672.703125 C 640.84375 672.445312 641.246094 672.132812 641.601562 671.761719 C 641.957031 671.390625 642.253906 670.976562 642.492188 670.519531 C 642.730469 670.0625 642.894531 669.582031 642.992188 669.078125 C 643.089844 668.570312 643.113281 668.0625 643.066406 667.550781 C 643.039062 667.039062 642.945312 666.542969 642.78125 666.058594 C 642.617188 665.570312 642.390625 665.117188 642.101562 664.695312 C 641.8125 664.273438 641.46875 663.902344 641.074219 663.574219 C 640.679688 663.246094 640.25 662.980469 639.78125 662.773438 Z M 529.976562 695.039062 C 506.027344 701 481.71875 704.167969 457.042969 704.539062 L 454.371094 704.539062 C 449.148438 704.570312 443.925781 704.472656 438.707031 704.25 C 433.488281 704.027344 428.277344 703.675781 423.074219 703.195312 C 417.875 702.714844 412.6875 702.109375 407.515625 701.378906 C 402.34375 700.648438 397.191406 699.789062 392.058594 698.804688 C 386.929688 697.824219 381.828125 696.714844 376.75 695.480469 C 371.671875 694.25 366.628906 692.894531 361.621094 691.414062 C 356.609375 689.9375 351.640625 688.335938 346.707031 686.613281 C 341.777344 684.894531 336.890625 683.050781 332.046875 681.09375 C 327.203125 679.132812 322.414062 677.054688 317.671875 674.863281 C 312.933594 672.667969 308.246094 670.359375 303.621094 667.9375 C 298.992188 665.515625 294.425781 662.980469 289.921875 660.335938 C 285.417969 657.6875 280.980469 654.933594 276.613281 652.074219 C 272.242188 649.210938 267.945312 646.246094 263.722656 643.171875 C 259.496094 640.101562 255.347656 636.925781 251.28125 633.652344 C 247.210938 630.378906 243.222656 627.007812 239.316406 623.539062 C 235.414062 620.070312 231.59375 616.507812 227.863281 612.851562 C 224.132812 609.195312 220.492188 605.453125 216.945312 601.621094 C 213.398438 597.785156 209.945312 593.871094 206.589844 589.867188 C 203.234375 585.867188 199.976562 581.785156 196.820312 577.625 C 193.660156 573.464844 190.605469 569.230469 187.65625 564.917969 C 184.707031 560.609375 181.863281 556.230469 179.125 551.78125 C 176.390625 547.335938 173.765625 542.820312 171.246094 538.246094 C 168.730469 533.667969 166.328125 529.035156 164.039062 524.339844 C 161.75 519.644531 159.574219 514.898438 157.519531 510.097656 C 155.460938 505.296875 153.519531 500.453125 151.699219 495.558594 C 149.878906 490.660156 148.179688 485.726562 146.597656 480.75 C 145.019531 475.769531 143.5625 470.757812 142.226562 465.707031 C 140.890625 460.660156 139.679688 455.582031 138.59375 450.472656 C 137.507812 445.367188 136.546875 440.234375 135.710938 435.078125 C 134.875 429.925781 134.164062 424.75 133.582031 419.5625 C 132.996094 414.371094 132.539062 409.171875 132.210938 403.960938 C 131.882812 398.75 131.679688 393.53125 131.605469 388.308594 C 131.53125 383.058594 131.585938 377.8125 131.769531 372.566406 C 131.949219 367.316406 132.261719 362.078125 132.703125 356.847656 C 133.144531 351.613281 133.714844 346.398438 134.410156 341.191406 C 135.105469 335.988281 135.929688 330.804688 136.882812 325.640625 C 137.835938 320.476562 138.914062 315.339844 140.117188 310.230469 C 141.320312 305.121094 142.648438 300.042969 144.101562 294.996094 C 145.554688 289.953125 147.132812 284.945312 148.832031 279.976562 C 150.527344 275.007812 152.347656 270.085938 154.289062 265.207031 C 156.230469 260.328125 158.289062 255.5 160.46875 250.722656 C 162.644531 245.945312 164.941406 241.222656 167.351562 236.558594 C 169.761719 231.894531 172.28125 227.289062 174.917969 222.75 C 177.554688 218.207031 180.300781 213.734375 183.15625 209.328125 C 186.011719 204.921875 188.972656 200.589844 192.042969 196.328125 C 195.109375 192.066406 198.28125 187.882812 201.554688 183.777344 C 204.832031 179.671875 208.203125 175.648438 211.675781 171.710938 C 215.144531 167.769531 218.710938 163.917969 222.371094 160.152344 C 226.035156 156.386719 229.785156 152.714844 233.625 149.132812 C 237.464844 145.554688 241.394531 142.070312 245.40625 138.679688 C 249.417969 135.292969 253.511719 132.003906 257.683594 128.820312 C 261.859375 125.632812 266.105469 122.546875 270.433594 119.570312 C 274.757812 116.589844 279.152344 113.722656 283.617188 110.957031 C 288.085938 108.195312 292.617188 105.542969 297.210938 103.003906 C 301.808594 100.460938 306.464844 98.035156 311.179688 95.722656 C 315.894531 93.414062 320.664062 91.21875 325.488281 89.140625 C 330.3125 87.0625 335.183594 85.101562 340.101562 83.265625 C 345.019531 81.425781 349.980469 79.707031 354.984375 78.113281 C 359.988281 76.519531 365.03125 75.046875 370.105469 73.699219 C 375.179688 72.351562 380.289062 71.128906 385.421875 70.03125 C 390.558594 68.933594 395.71875 67.964844 400.902344 67.117188 C 406.085938 66.273438 411.289062 65.558594 416.507812 64.96875 C 421.726562 64.382812 426.957031 63.921875 432.199219 63.589844 C 437.441406 63.257812 442.6875 63.054688 447.9375 62.976562 L 452.53125 62.976562 C 471.199219 62.945312 489.722656 64.550781 508.109375 67.785156 C 526.492188 71.023438 544.453125 75.84375 561.988281 82.246094 C 556.265625 86.285156 550.671875 90.488281 545.207031 94.859375 C 539.738281 99.234375 534.40625 103.769531 529.214844 108.464844 C 524.019531 113.15625 518.976562 118.003906 514.074219 123.003906 C 509.171875 128.003906 504.429688 133.144531 499.839844 138.433594 C 495.246094 143.71875 490.820312 149.136719 486.558594 154.6875 C 482.296875 160.242188 478.203125 165.917969 474.28125 171.71875 C 470.363281 177.515625 466.621094 183.429688 463.058594 189.453125 C 459.492188 195.480469 456.113281 201.605469 452.921875 207.835938 C 449.726562 214.066406 446.726562 220.382812 443.914062 226.792969 C 441.101562 233.203125 438.484375 239.695312 436.0625 246.261719 C 433.644531 252.832031 431.421875 259.464844 429.402344 266.167969 C 427.382812 272.867188 425.566406 279.625 423.957031 286.4375 C 422.34375 293.25 420.9375 300.101562 419.738281 307 C 418.542969 313.894531 417.550781 320.820312 416.773438 327.777344 C 415.992188 334.734375 415.421875 341.707031 415.0625 348.695312 C 414.703125 355.6875 414.554688 362.683594 414.621094 369.679688 C 416.410156 494.636719 488.171875 611.105469 598.347656 669.445312 C 576.546875 680.617188 553.757812 689.148438 529.976562 695.039062 Z M 529.976562 695.039062 " fill-opacity="1" fill-rule="nonzero"/></g></svg>