<svg xmlns="http://www.w3.org/2000/svg" xmlns:xlink="http://www.w3.org/1999/xlink" width="1000" zoomAndPan="magnify" viewBox="0 0 750 749.999995" height="1000" preserveAspectRatio="xMidYMid meet" version="1.0"><defs><clipPath id="c2b886dc8d"><path d="M 156 39 L 633.230469 39 L 633.230469 728.511719 L 156 728.511719 Z M 156 39 " clip-rule="nonzero"/></clipPath></defs><g clip-path="url(#c2b886dc8d)"><path fill="#000000" d="M 627.382812 696.773438 L 575.777344 696.160156 C 400.5625 694.078125 261.367188 555.140625 258.828125 379.875 C 256.695312 229.621094 361.320312 96.179688 507.621094 62.632812 L 560.347656 50.542969 C 561.015625 50.378906 561.632812 50.101562 562.199219 49.714844 C 562.769531 49.328125 563.253906 48.855469 563.648438 48.292969 C 564.046875 47.730469 564.332031 47.117188 564.507812 46.453125 C 564.683594 45.789062 564.738281 45.113281 564.671875 44.429688 C 564.585938 43.742188 564.382812 43.089844 564.0625 42.472656 C 563.738281 41.859375 563.320312 41.320312 562.800781 40.859375 C 562.28125 40.398438 561.699219 40.042969 561.050781 39.792969 C 560.402344 39.542969 559.730469 39.417969 559.039062 39.414062 L 496.003906 39.414062 C 306.082031 42.082031 153.695312 198.875 156.394531 388.789062 C 156.472656 394.375 156.6875 399.953125 157.039062 405.527344 C 157.390625 411.097656 157.878906 416.660156 158.5 422.210938 C 159.121094 427.757812 159.878906 433.289062 160.769531 438.804688 C 161.660156 444.316406 162.6875 449.804688 163.84375 455.265625 C 165.003906 460.730469 166.292969 466.160156 167.714844 471.5625 C 169.136719 476.960938 170.691406 482.324219 172.375 487.648438 C 174.058594 492.972656 175.867188 498.253906 177.808594 503.492188 C 179.75 508.726562 181.816406 513.914062 184.007812 519.050781 C 186.199219 524.1875 188.515625 529.265625 190.957031 534.289062 C 193.398438 539.3125 195.957031 544.273438 198.636719 549.171875 C 201.320312 554.070312 204.117188 558.902344 207.035156 563.664062 C 209.949219 568.429688 212.980469 573.117188 216.125 577.734375 C 219.269531 582.347656 222.523438 586.886719 225.890625 591.34375 C 229.253906 595.800781 232.726562 600.171875 236.304688 604.460938 C 239.882812 608.75 243.5625 612.949219 247.34375 617.058594 C 251.125 621.167969 255.003906 625.183594 258.980469 629.105469 C 262.960938 633.027344 267.03125 636.847656 271.195312 640.570312 C 275.355469 644.292969 279.609375 647.914062 283.949219 651.429688 C 288.289062 654.945312 292.710938 658.355469 297.214844 661.65625 C 301.722656 664.957031 306.304688 668.148438 310.964844 671.226562 C 315.625 674.304688 320.355469 677.269531 325.160156 680.117188 C 329.964844 682.964844 334.839844 685.695312 339.777344 688.304688 C 344.714844 690.917969 349.710938 693.40625 354.769531 695.777344 C 359.828125 698.144531 364.941406 700.390625 370.109375 702.507812 C 375.277344 704.628906 380.496094 706.621094 385.757812 708.488281 C 391.023438 710.355469 396.332031 712.09375 401.679688 713.699219 C 407.03125 715.308594 412.414062 716.785156 417.835938 718.132812 C 423.257812 719.480469 428.707031 720.691406 434.1875 721.773438 C 439.667969 722.855469 445.171875 723.804688 450.699219 724.617188 C 456.226562 725.429688 461.769531 726.109375 467.328125 726.652344 C 472.886719 727.199219 478.457031 727.605469 484.035156 727.878906 C 489.617188 728.152344 495.199219 728.292969 500.785156 728.292969 L 505.804688 728.292969 C 530.261719 727.96875 554.414062 725.085938 578.257812 719.644531 L 628.664062 708.011719 C 629.332031 707.855469 629.953125 707.585938 630.523438 707.203125 C 631.097656 706.820312 631.582031 706.347656 631.980469 705.789062 C 632.378906 705.226562 632.664062 704.613281 632.839844 703.949219 C 633.011719 703.285156 633.0625 702.609375 632.988281 701.925781 C 632.957031 701.578125 632.890625 701.238281 632.796875 700.902344 C 632.699219 700.566406 632.574219 700.242188 632.417969 699.929688 C 632.265625 699.617188 632.082031 699.324219 631.875 699.046875 C 631.664062 698.765625 631.429688 698.507812 631.175781 698.273438 C 630.917969 698.039062 630.640625 697.828125 630.347656 697.640625 C 630.050781 697.457031 629.742188 697.300781 629.417969 697.171875 C 629.09375 697.042969 628.761719 696.945312 628.417969 696.878906 C 628.074219 696.8125 627.730469 696.777344 627.382812 696.773438 Z M 277.355469 613.800781 C 273.578125 610.152344 269.890625 606.414062 266.292969 602.585938 C 262.699219 598.753906 259.199219 594.839844 255.800781 590.835938 C 252.398438 586.832031 249.097656 582.746094 245.898438 578.582031 C 242.699219 574.414062 239.605469 570.171875 236.617188 565.851562 C 233.628906 561.535156 230.746094 557.144531 227.976562 552.683594 C 225.203125 548.21875 222.542969 543.691406 219.996094 539.097656 C 217.449219 534.503906 215.015625 529.851562 212.699219 525.136719 C 210.382812 520.425781 208.183594 515.65625 206.101562 510.832031 C 204.019531 506.011719 202.0625 501.140625 200.222656 496.222656 C 198.382812 491.300781 196.664062 486.339844 195.070312 481.335938 C 193.476562 476.332031 192.003906 471.289062 190.660156 466.210938 C 189.316406 461.136719 188.097656 456.027344 187.007812 450.890625 C 185.914062 445.753906 184.949219 440.589844 184.113281 435.40625 C 183.277344 430.222656 182.570312 425.019531 181.992188 419.796875 C 181.414062 414.578125 180.964844 409.347656 180.644531 404.105469 C 180.324219 398.863281 180.132812 393.613281 180.074219 388.363281 C 180.019531 384.042969 180.054688 379.722656 180.175781 375.402344 C 180.296875 371.082031 180.503906 366.765625 180.800781 362.453125 C 181.09375 358.140625 181.476562 353.835938 181.945312 349.539062 C 182.414062 345.246094 182.96875 340.960938 183.609375 336.683594 C 184.25 332.410156 184.980469 328.152344 185.792969 323.90625 C 186.605469 319.664062 187.503906 315.4375 188.488281 311.226562 C 189.46875 307.019531 190.535156 302.832031 191.6875 298.664062 C 192.839844 294.5 194.074219 290.359375 195.394531 286.242188 C 196.714844 282.128906 198.117188 278.039062 199.597656 273.980469 C 201.082031 269.921875 202.648438 265.894531 204.292969 261.898438 C 205.941406 257.902344 207.664062 253.9375 209.46875 250.011719 C 211.277344 246.085938 213.160156 242.195312 215.121094 238.34375 C 217.085938 234.496094 219.125 230.683594 221.238281 226.914062 C 223.355469 223.148438 225.546875 219.421875 227.8125 215.742188 C 230.078125 212.0625 232.417969 208.425781 234.828125 204.839844 C 237.242188 201.253906 239.726562 197.71875 242.28125 194.230469 C 244.835938 190.746094 247.460938 187.3125 250.152344 183.929688 C 252.847656 180.550781 255.605469 177.226562 258.433594 173.953125 C 261.261719 170.683594 264.152344 167.472656 267.109375 164.320312 C 270.066406 161.167969 273.085938 158.074219 276.167969 155.042969 C 279.246094 152.011719 282.390625 149.042969 285.589844 146.140625 C 288.789062 143.234375 292.050781 140.394531 295.363281 137.621094 C 298.679688 134.847656 302.050781 132.140625 305.472656 129.503906 C 308.898438 126.863281 312.375 124.296875 315.902344 121.796875 C 319.429688 119.300781 323.007812 116.875 326.632812 114.519531 C 330.257812 112.167969 333.929688 109.886719 337.648438 107.679688 C 341.363281 105.472656 345.125 103.34375 348.929688 101.289062 C 352.730469 99.234375 356.574219 97.257812 360.457031 95.355469 C 364.339844 93.457031 368.261719 91.636719 372.21875 89.894531 C 376.171875 88.152344 380.164062 86.488281 384.1875 84.910156 C 388.210938 83.328125 392.265625 81.828125 396.347656 80.410156 C 400.429688 78.992188 404.542969 77.65625 408.679688 76.402344 C 405.082031 78.46875 401.523438 80.597656 398.003906 82.789062 C 394.484375 84.980469 391.003906 87.238281 387.5625 89.554688 C 384.125 91.875 380.726562 94.253906 377.375 96.695312 C 374.023438 99.132812 370.714844 101.636719 367.449219 104.195312 C 364.1875 106.753906 360.972656 109.375 357.804688 112.050781 C 354.636719 114.726562 351.515625 117.457031 348.445312 120.246094 C 345.375 123.035156 342.355469 125.878906 339.390625 128.777344 C 336.421875 131.671875 333.507812 134.625 330.648438 137.625 C 327.785156 140.628906 324.980469 143.683594 322.230469 146.785156 C 319.480469 149.890625 316.785156 153.042969 314.148438 156.242188 C 311.511719 159.445312 308.933594 162.691406 306.414062 165.984375 C 303.894531 169.28125 301.433594 172.617188 299.035156 176 C 296.636719 179.382812 294.300781 182.808594 292.023438 186.277344 C 289.75 189.742188 287.535156 193.25 285.386719 196.796875 C 283.238281 200.34375 281.15625 203.929688 279.136719 207.550781 C 277.117188 211.171875 275.164062 214.828125 273.273438 218.523438 C 271.386719 222.214844 269.566406 225.941406 267.8125 229.699219 C 266.0625 233.457031 264.375 237.246094 262.757812 241.0625 C 261.144531 244.882812 259.597656 248.730469 258.121094 252.605469 C 256.640625 256.476562 255.234375 260.378906 253.898438 264.304688 C 252.5625 268.230469 251.296875 272.179688 250.101562 276.148438 C 248.90625 280.121094 247.785156 284.113281 246.734375 288.121094 C 245.683594 292.132812 244.707031 296.164062 243.804688 300.210938 C 242.898438 304.257812 242.066406 308.320312 241.308594 312.394531 C 240.550781 316.472656 239.867188 320.5625 239.257812 324.664062 C 238.644531 328.765625 238.109375 332.875 237.648438 336.996094 C 237.183594 341.117188 236.796875 345.246094 236.484375 349.382812 C 236.171875 353.515625 235.933594 357.65625 235.769531 361.796875 C 235.605469 365.941406 235.515625 370.085938 235.503906 374.234375 C 235.488281 378.378906 235.550781 382.527344 235.683594 386.671875 C 235.820312 390.816406 236.03125 394.957031 236.316406 399.09375 C 236.601562 403.230469 236.960938 407.359375 237.394531 411.484375 C 237.828125 415.605469 238.335938 419.722656 238.917969 423.828125 C 239.503906 427.933594 240.160156 432.027344 240.886719 436.109375 C 241.621094 440.191406 242.421875 444.257812 243.300781 448.3125 C 244.179688 452.363281 245.128906 456.398438 246.152344 460.417969 C 247.171875 464.4375 248.269531 468.4375 249.4375 472.414062 C 250.601562 476.394531 251.839844 480.351562 253.152344 484.285156 C 254.460938 488.21875 255.84375 492.128906 257.292969 496.015625 C 258.746094 499.898438 260.265625 503.753906 261.855469 507.585938 C 263.445312 511.414062 265.105469 515.214844 266.832031 518.984375 C 268.5625 522.753906 270.355469 526.492188 272.21875 530.199219 C 274.082031 533.902344 276.007812 537.574219 278.003906 541.210938 C 280 544.84375 282.058594 548.441406 284.183594 552.003906 C 286.308594 555.566406 288.496094 559.085938 290.75 562.570312 C 293 566.050781 295.316406 569.492188 297.691406 572.890625 C 300.066406 576.289062 302.503906 579.644531 305 582.957031 C 307.5 586.269531 310.054688 589.53125 312.667969 592.75 C 315.285156 595.96875 317.957031 599.140625 320.6875 602.261719 C 323.414062 605.386719 326.199219 608.457031 329.039062 611.480469 C 331.878906 614.5 334.773438 617.472656 337.722656 620.390625 C 340.671875 623.308594 343.667969 626.171875 346.71875 628.980469 C 349.769531 631.789062 352.871094 634.542969 356.023438 637.242188 C 359.171875 639.9375 362.371094 642.578125 365.617188 645.160156 C 368.859375 647.742188 372.152344 650.265625 375.488281 652.726562 C 378.824219 655.191406 382.207031 657.59375 385.628906 659.9375 C 389.050781 662.277344 392.515625 664.554688 396.023438 666.773438 C 399.527344 668.988281 403.074219 671.140625 406.65625 673.230469 C 410.238281 675.320312 413.859375 677.34375 417.515625 679.300781 C 421.171875 681.257812 424.863281 683.152344 428.585938 684.976562 C 432.3125 686.800781 436.070312 688.558594 439.855469 690.25 C 443.644531 691.9375 447.460938 693.558594 451.308594 695.109375 C 455.15625 696.660156 459.027344 698.144531 462.929688 699.554688 C 466.828125 700.96875 470.753906 702.308594 474.703125 703.578125 C 465.507812 702.84375 456.363281 701.707031 447.265625 700.175781 C 438.171875 698.644531 429.160156 696.722656 420.230469 694.410156 C 411.300781 692.09375 402.488281 689.398438 393.796875 686.320312 C 385.101562 683.242188 376.554688 679.796875 368.160156 675.976562 C 359.765625 672.15625 351.550781 667.980469 343.519531 663.449219 C 335.484375 658.917969 327.664062 654.046875 320.054688 648.835938 C 312.445312 643.625 305.074219 638.09375 297.945312 632.242188 C 290.816406 626.394531 283.953125 620.246094 277.355469 613.800781 Z M 277.355469 613.800781 " fill-opacity="1" fill-rule="nonzero"/></g></svg>