<svg xmlns="http://www.w3.org/2000/svg" xmlns:xlink="http://www.w3.org/1999/xlink" width="1000" zoomAndPan="magnify" viewBox="0 0 750 749.999995" height="1000" preserveAspectRatio="xMidYMid meet" version="1.0"><defs><clipPath id="ab313a3898"><path d="M 117 39 L 585 39 L 585 728.511719 L 117 728.511719 Z M 117 39 " clip-rule="nonzero"/></clipPath></defs><g clip-path="url(#ab313a3898)"><path fill="#000000" d="M 240.171875 39.277344 L 235.097656 39.277344 C 232.136719 39.277344 229.039062 39.4375 226.046875 39.574219 L 172.199219 41.28125 C 171.519531 41.304688 170.867188 41.449219 170.238281 41.710938 C 169.613281 41.976562 169.054688 42.34375 168.5625 42.8125 C 168.070312 43.285156 167.675781 43.824219 167.382812 44.441406 C 167.089844 45.054688 166.917969 45.699219 166.863281 46.378906 C 166.832031 46.722656 166.832031 47.066406 166.863281 47.40625 C 166.894531 47.75 166.957031 48.089844 167.050781 48.421875 C 167.144531 48.753906 167.269531 49.074219 167.421875 49.382812 C 167.574219 49.691406 167.753906 49.984375 167.960938 50.257812 C 168.167969 50.535156 168.398438 50.789062 168.648438 51.023438 C 168.902344 51.257812 169.175781 51.464844 169.46875 51.648438 C 169.757812 51.835938 170.066406 51.988281 170.386719 52.117188 C 170.707031 52.246094 171.035156 52.34375 171.375 52.410156 L 224.101562 62.925781 C 371.28125 92.28125 479.695312 222.707031 481.886719 372.964844 C 484.367188 548.226562 349.203125 691.089844 174.097656 698.1875 L 122.410156 700.242188 C 121.730469 700.277344 121.074219 700.429688 120.445312 700.703125 C 119.820312 700.976562 119.261719 701.347656 118.769531 701.824219 C 118.28125 702.300781 117.890625 702.84375 117.597656 703.464844 C 117.304688 704.082031 117.132812 704.730469 117.074219 705.410156 C 117.019531 706.089844 117.085938 706.761719 117.273438 707.417969 C 117.460938 708.074219 117.761719 708.675781 118.167969 709.222656 C 118.574219 709.773438 119.066406 710.230469 119.640625 710.601562 C 120.214844 710.972656 120.835938 711.230469 121.503906 711.371094 L 172.226562 721.515625 C 194.558594 725.972656 217.105469 728.199219 239.878906 728.1875 L 244.898438 728.1875 C 434.871094 725.519531 587.257812 568.777344 584.507812 378.914062 C 584.445312 373.273438 584.242188 367.640625 583.902344 362.007812 C 583.558594 356.378906 583.078125 350.757812 582.457031 345.152344 C 581.835938 339.546875 581.078125 333.957031 580.183594 328.386719 C 579.285156 322.820312 578.253906 317.273438 577.082031 311.757812 C 575.910156 306.238281 574.605469 300.753906 573.164062 295.300781 C 571.722656 289.84375 570.144531 284.429688 568.433594 279.054688 C 566.726562 273.679688 564.882812 268.347656 562.910156 263.0625 C 560.9375 257.777344 558.835938 252.546875 556.601562 247.367188 C 554.371094 242.183594 552.011719 237.0625 549.523438 232 C 547.039062 226.933594 544.429688 221.933594 541.695312 217 C 538.964844 212.0625 536.109375 207.199219 533.136719 202.40625 C 530.164062 197.609375 527.074219 192.894531 523.867188 188.25 C 520.660156 183.609375 517.339844 179.050781 513.90625 174.574219 C 510.472656 170.097656 506.933594 165.707031 503.285156 161.402344 C 499.632812 157.101562 495.878906 152.890625 492.023438 148.773438 C 488.164062 144.660156 484.207031 140.640625 480.152344 136.71875 C 476.191406 132.851562 472.140625 129.085938 467.996094 125.417969 C 463.851562 121.75 459.625 118.183594 455.308594 114.71875 C 450.992188 111.253906 446.59375 107.898438 442.113281 104.644531 C 437.636719 101.394531 433.082031 98.253906 428.449219 95.222656 C 423.820312 92.195312 419.117188 89.277344 414.347656 86.476562 C 409.574219 83.671875 404.738281 80.988281 399.832031 78.417969 C 394.929688 75.851562 389.96875 73.402344 384.949219 71.074219 C 379.925781 68.746094 374.851562 66.542969 369.726562 64.460938 C 364.597656 62.378906 359.421875 60.421875 354.199219 58.589844 C 348.976562 56.757812 343.710938 55.054688 338.40625 53.476562 C 333.101562 51.902344 327.761719 50.453125 322.386719 49.136719 C 317.007812 47.816406 311.605469 46.632812 306.171875 45.574219 C 300.738281 44.519531 295.285156 43.59375 289.804688 42.804688 C 284.328125 42.011719 278.835938 41.351562 273.324219 40.828125 C 267.816406 40.300781 262.296875 39.910156 256.765625 39.652344 C 251.238281 39.394531 245.707031 39.269531 240.171875 39.277344 Z M 561.042969 383.746094 C 561.039062 388.628906 560.925781 393.507812 560.703125 398.382812 C 560.476562 403.261719 560.140625 408.128906 559.691406 412.992188 C 559.246094 417.851562 558.6875 422.703125 558.019531 427.539062 C 557.351562 432.375 556.570312 437.191406 555.683594 441.992188 C 554.792969 446.792969 553.796875 451.570312 552.691406 456.324219 C 551.582031 461.082031 550.371094 465.808594 549.046875 470.507812 C 547.726562 475.207031 546.296875 479.875 544.761719 484.507812 C 543.226562 489.144531 541.585938 493.738281 539.839844 498.300781 C 538.097656 502.859375 536.246094 507.378906 534.296875 511.851562 C 532.34375 516.328125 530.292969 520.757812 528.140625 525.136719 C 525.988281 529.519531 523.734375 533.851562 521.382812 538.128906 C 519.035156 542.410156 516.585938 546.632812 514.042969 550.800781 C 511.5 554.96875 508.863281 559.074219 506.132812 563.121094 C 503.398438 567.167969 500.578125 571.152344 497.664062 575.070312 C 494.753906 578.988281 491.753906 582.839844 488.664062 586.621094 C 485.574219 590.402344 482.402344 594.113281 479.144531 597.75 C 475.886719 601.386719 472.546875 604.945312 469.128906 608.433594 C 465.707031 611.917969 462.210938 615.320312 458.632812 618.648438 C 455.058594 621.972656 451.410156 625.214844 447.6875 628.375 C 443.960938 631.53125 440.167969 634.605469 436.304688 637.589844 C 432.441406 640.574219 428.511719 643.472656 424.515625 646.277344 C 420.519531 649.085938 416.460938 651.800781 412.34375 654.421875 C 408.222656 657.042969 404.046875 659.570312 399.8125 662 C 395.578125 664.429688 391.289062 666.765625 386.945312 669 C 382.605469 671.234375 378.214844 673.371094 373.777344 675.40625 C 369.335938 677.441406 364.855469 679.375 360.328125 681.207031 C 355.800781 683.035156 351.234375 684.765625 346.628906 686.386719 C 342.023438 688.007812 337.382812 689.527344 332.707031 690.9375 C 328.03125 692.347656 323.328125 693.652344 318.589844 694.847656 C 313.855469 696.046875 309.097656 697.132812 304.3125 698.113281 C 299.527344 699.09375 294.726562 699.960938 289.902344 700.722656 C 285.078125 701.484375 280.238281 702.132812 275.386719 702.671875 C 288.234375 698.160156 300.773438 692.898438 312.996094 686.886719 C 325.21875 680.878906 337.042969 674.167969 348.464844 666.75 C 359.890625 659.332031 370.832031 651.261719 381.292969 642.539062 C 391.75 633.816406 401.65625 624.503906 411.003906 614.601562 C 414.835938 610.582031 418.566406 606.472656 422.195312 602.273438 C 425.824219 598.074219 429.351562 593.785156 432.773438 589.414062 C 436.195312 585.042969 439.507812 580.59375 442.710938 576.058594 C 445.917969 571.527344 449.007812 566.917969 451.988281 562.234375 C 454.972656 557.554688 457.835938 552.800781 460.585938 547.976562 C 463.335938 543.15625 465.964844 538.269531 468.476562 533.320312 C 470.988281 528.367188 473.378906 523.359375 475.644531 518.292969 C 477.914062 513.226562 480.054688 508.109375 482.074219 502.9375 C 484.09375 497.765625 485.984375 492.550781 487.75 487.289062 C 489.515625 482.023438 491.152344 476.722656 492.65625 471.378906 C 494.164062 466.039062 495.539062 460.664062 496.785156 455.253906 C 498.03125 449.84375 499.144531 444.40625 500.125 438.945312 C 501.105469 433.480469 501.953125 427.996094 502.667969 422.492188 C 503.382812 416.988281 503.960938 411.46875 504.40625 405.9375 C 504.851562 400.40625 505.160156 394.863281 505.335938 389.316406 C 505.511719 383.769531 505.554688 378.21875 505.460938 372.671875 C 505.3125 362.839844 504.75 353.03125 503.765625 343.25 C 502.78125 333.464844 501.382812 323.742188 499.566406 314.078125 C 497.75 304.414062 495.527344 294.847656 492.894531 285.371094 C 490.261719 275.898438 487.226562 266.554688 483.792969 257.339844 C 480.363281 248.125 476.542969 239.074219 472.335938 230.1875 C 468.132812 221.300781 463.554688 212.605469 458.605469 204.109375 C 453.65625 195.613281 448.351562 187.34375 442.695312 179.296875 C 437.039062 171.253906 431.050781 163.464844 424.726562 155.933594 C 410.546875 139.117188 394.902344 123.792969 377.800781 109.953125 C 360.699219 96.117188 342.445312 84.015625 323.039062 73.652344 C 327.222656 74.777344 331.378906 75.984375 335.515625 77.277344 C 339.648438 78.570312 343.753906 79.945312 347.832031 81.402344 C 351.910156 82.859375 355.957031 84.398438 359.972656 86.019531 C 363.988281 87.640625 367.972656 89.34375 371.917969 91.125 C 375.867188 92.90625 379.777344 94.769531 383.648438 96.710938 C 387.519531 98.648438 391.351562 100.667969 395.140625 102.761719 C 398.933594 104.859375 402.679688 107.027344 406.382812 109.273438 C 410.082031 111.523438 413.738281 113.84375 417.347656 116.238281 C 420.957031 118.628906 424.515625 121.097656 428.023438 123.636719 C 431.535156 126.171875 434.988281 128.78125 438.394531 131.457031 C 441.796875 134.136719 445.144531 136.882812 448.4375 139.695312 C 451.730469 142.507812 454.964844 145.386719 458.140625 148.332031 C 461.316406 151.273438 464.433594 154.28125 467.488281 157.351562 C 470.542969 160.421875 473.53125 163.550781 476.460938 166.742188 C 479.386719 169.933594 482.25 173.179688 485.046875 176.488281 C 487.84375 179.792969 490.570312 183.15625 493.234375 186.570312 C 495.894531 189.988281 498.484375 193.457031 501.003906 196.976562 C 503.523438 200.5 505.972656 204.070312 508.347656 207.691406 C 510.726562 211.308594 513.027344 214.976562 515.253906 218.691406 C 517.480469 222.402344 519.632812 226.160156 521.710938 229.960938 C 523.785156 233.761719 525.78125 237.601562 527.703125 241.480469 C 529.625 245.363281 531.464844 249.28125 533.226562 253.234375 C 534.988281 257.191406 536.671875 261.179688 538.269531 265.203125 C 539.871094 269.226562 541.390625 273.28125 542.828125 277.367188 C 544.265625 281.449219 545.617188 285.5625 546.886719 289.703125 C 548.15625 293.839844 549.34375 298.003906 550.445312 302.191406 C 551.546875 306.378906 552.566406 310.585938 553.496094 314.816406 C 554.429688 319.042969 555.273438 323.289062 556.035156 327.550781 C 556.796875 331.816406 557.46875 336.089844 558.054688 340.378906 C 558.644531 344.671875 559.144531 348.96875 559.558594 353.28125 C 559.972656 357.589844 560.296875 361.90625 560.535156 366.230469 C 560.773438 370.554688 560.925781 374.878906 560.988281 379.210938 C 560.988281 380.703125 561.042969 382.226562 561.042969 383.746094 Z M 561.042969 383.746094 " fill-opacity="1" fill-rule="nonzero"/></g></svg>