<svg xmlns="http://www.w3.org/2000/svg" xmlns:xlink="http://www.w3.org/1999/xlink" width="1000" zoomAndPan="magnify" viewBox="0 0 750 749.999995" height="1000" preserveAspectRatio="xMidYMid meet" version="1.0"><defs><clipPath id="bb8eaf5062"><path d="M 107.484375 39 L 634 39 L 634 728.511719 L 107.484375 728.511719 Z M 107.484375 39 " clip-rule="nonzero"/></clipPath></defs><g clip-path="url(#bb8eaf5062)"><path fill="#000000" d="M 288.617188 39.277344 L 283.597656 39.277344 C 271.171875 39.433594 258.789062 40.261719 246.449219 41.761719 C 234.109375 43.265625 221.890625 45.4375 209.789062 48.273438 C 197.6875 51.109375 185.777344 54.59375 174.058594 58.730469 C 162.335938 62.867188 150.875 67.628906 139.675781 73.011719 L 128.996094 78.109375 C 128.53125 78.335938 128.101562 78.617188 127.714844 78.957031 C 127.328125 79.300781 126.992188 79.6875 126.707031 80.117188 C 126.425781 80.550781 126.207031 81.015625 126.050781 81.507812 C 125.894531 82 125.808594 82.503906 125.792969 83.019531 C 125.773438 83.535156 125.828125 84.039062 125.949219 84.539062 C 126.074219 85.035156 126.261719 85.507812 126.519531 85.953125 C 126.773438 86.398438 127.082031 86.800781 127.449219 87.160156 C 127.816406 87.519531 128.226562 87.820312 128.675781 88.066406 L 138.953125 93.910156 C 142.128906 95.703125 145.273438 97.546875 148.386719 99.449219 C 151.496094 101.347656 154.574219 103.300781 157.621094 105.304688 C 160.667969 107.308594 163.675781 109.363281 166.652344 111.472656 C 169.628906 113.578125 172.566406 115.734375 175.46875 117.941406 C 178.371094 120.148438 181.234375 122.40625 184.058594 124.710938 C 186.886719 127.015625 189.667969 129.367188 192.414062 131.765625 C 195.160156 134.164062 197.863281 136.609375 200.523438 139.101562 C 203.1875 141.59375 205.804688 144.128906 208.378906 146.710938 C 210.953125 149.289062 213.484375 151.914062 215.972656 154.582031 C 218.457031 157.246094 220.894531 159.957031 223.289062 162.707031 C 225.683594 165.457031 228.027344 168.246094 230.328125 171.074219 C 232.625 173.90625 234.875 176.773438 237.074219 179.679688 C 239.277344 182.585938 241.425781 185.53125 243.527344 188.507812 C 245.628906 191.488281 247.675781 194.503906 249.675781 197.550781 C 251.671875 200.601562 253.617188 203.683594 255.507812 206.800781 C 257.402344 209.917969 259.242188 213.0625 261.027344 216.242188 C 262.8125 219.417969 264.542969 222.628906 266.21875 225.863281 C 267.894531 229.101562 269.515625 232.367188 271.078125 235.660156 C 272.644531 238.953125 274.152344 242.269531 275.605469 245.613281 C 277.054688 248.957031 278.449219 252.324219 279.785156 255.714844 C 281.125 259.109375 282.402344 262.519531 283.621094 265.957031 C 284.84375 269.390625 286.003906 272.84375 287.109375 276.320312 C 288.210938 279.792969 289.253906 283.285156 290.238281 286.796875 C 291.222656 290.304688 292.144531 293.832031 293.007812 297.371094 C 293.871094 300.914062 294.675781 304.46875 295.417969 308.039062 C 296.160156 311.605469 296.84375 315.1875 297.460938 318.777344 C 298.082031 322.371094 298.640625 325.972656 299.140625 329.582031 C 299.636719 333.195312 300.074219 336.8125 300.449219 340.4375 C 300.824219 344.066406 301.136719 347.695312 301.386719 351.332031 C 301.636719 354.96875 301.824219 358.609375 301.953125 362.25 C 302.078125 365.894531 302.144531 369.539062 302.144531 373.183594 C 302.148438 376.828125 302.089844 380.472656 301.96875 384.117188 C 301.84375 387.757812 301.660156 391.398438 301.414062 395.035156 C 301.167969 398.671875 300.863281 402.304688 300.492188 405.929688 C 300.125 409.558594 299.691406 413.175781 299.199219 416.789062 C 298.707031 420.398438 298.152344 424 297.535156 427.59375 C 296.921875 431.1875 296.242188 434.769531 295.507812 438.335938 C 294.769531 441.90625 293.96875 445.464844 293.113281 449.007812 C 292.253906 452.550781 291.332031 456.074219 290.355469 459.585938 C 289.375 463.097656 288.335938 466.59375 287.238281 470.066406 C 286.140625 473.542969 284.984375 477 283.769531 480.4375 C 282.550781 483.871094 281.277344 487.289062 279.945312 490.679688 C 278.613281 494.074219 277.222656 497.441406 275.777344 500.789062 C 274.328125 504.132812 272.824219 507.453125 271.265625 510.75 C 269.703125 514.042969 268.089844 517.3125 266.417969 520.550781 C 264.746094 523.789062 263.019531 527 261.238281 530.179688 C 259.457031 533.363281 257.621094 536.511719 255.734375 539.628906 C 253.847656 542.746094 251.90625 545.832031 249.910156 548.886719 C 247.917969 551.9375 245.875 554.953125 243.777344 557.9375 C 241.679688 560.917969 239.535156 563.863281 237.335938 566.773438 C 235.140625 569.683594 232.894531 572.554688 230.601562 575.386719 C 228.304688 578.222656 225.964844 581.015625 223.574219 583.765625 C 221.183594 586.519531 218.75 589.230469 216.265625 591.902344 C 213.785156 594.570312 211.257812 597.199219 208.6875 599.785156 C 206.113281 602.367188 203.5 604.90625 200.839844 607.402344 C 198.183594 609.898438 195.484375 612.347656 192.742188 614.75 C 190 617.152344 187.21875 619.507812 184.394531 621.816406 C 181.574219 624.125 178.714844 626.382812 175.8125 628.59375 C 172.914062 630.804688 169.980469 632.96875 167.007812 635.078125 C 164.035156 637.1875 161.027344 639.25 157.984375 641.257812 C 154.941406 643.265625 151.863281 645.222656 148.753906 647.125 C 145.644531 649.03125 142.503906 650.878906 139.332031 652.675781 C 136.160156 654.472656 132.957031 656.214844 129.726562 657.902344 C 126.492188 659.589844 123.234375 661.222656 119.945312 662.800781 L 109.265625 667.925781 C 108.808594 668.148438 108.386719 668.433594 108.003906 668.773438 C 107.621094 669.113281 107.292969 669.496094 107.015625 669.929688 C 106.738281 670.359375 106.527344 670.816406 106.375 671.308594 C 106.222656 671.796875 106.140625 672.296875 106.128906 672.808594 C 106.113281 673.320312 106.167969 673.824219 106.292969 674.320312 C 106.417969 674.816406 106.605469 675.285156 106.859375 675.730469 C 107.113281 676.175781 107.421875 676.578125 107.785156 676.9375 C 108.148438 677.296875 108.554688 677.601562 109 677.851562 L 119.277344 683.695312 C 132.140625 690.945312 145.417969 697.339844 159.101562 702.878906 C 172.789062 708.417969 186.773438 713.0625 201.054688 716.804688 C 215.339844 720.546875 229.804688 723.359375 244.449219 725.242188 C 259.09375 727.125 273.800781 728.0625 288.566406 728.054688 L 293.476562 728.054688 C 483.453125 725.382812 635.757812 568.644531 633.0625 378.730469 C 630.339844 191.1875 476.058594 39.277344 288.617188 39.277344 Z M 609.488281 383.800781 C 609.484375 390.535156 609.269531 397.265625 608.839844 403.988281 C 608.414062 410.707031 607.773438 417.410156 606.925781 424.09375 C 606.074219 430.773438 605.015625 437.421875 603.746094 444.039062 C 602.476562 450.652344 601.003906 457.222656 599.320312 463.746094 C 597.636719 470.265625 595.753906 476.730469 593.664062 483.132812 C 591.574219 489.539062 589.285156 495.871094 586.796875 502.128906 C 584.308594 508.390625 581.625 514.5625 578.75 520.65625 C 575.871094 526.746094 572.804688 532.738281 569.550781 538.636719 C 566.296875 544.535156 562.859375 550.324219 559.242188 556.007812 C 555.621094 561.6875 551.828125 567.25 547.859375 572.695312 C 543.890625 578.136719 539.753906 583.449219 535.449219 588.632812 C 531.144531 593.816406 526.683594 598.855469 522.0625 603.757812 C 517.4375 608.660156 512.667969 613.410156 507.746094 618.011719 C 502.828125 622.613281 497.765625 627.054688 492.566406 631.339844 C 487.367188 635.621094 482.035156 639.738281 476.574219 643.683594 C 471.117188 647.632812 465.539062 651.40625 459.839844 655 C 454.144531 658.597656 448.339844 662.011719 442.425781 665.242188 C 436.515625 668.472656 430.507812 671.515625 424.402344 674.367188 C 418.300781 677.222656 412.113281 679.878906 405.839844 682.34375 C 399.570312 684.808594 393.226562 687.070312 386.8125 689.136719 C 380.402344 691.199219 373.929688 693.058594 367.398438 694.71875 C 360.867188 696.375 354.289062 697.824219 347.667969 699.066406 C 341.046875 700.3125 334.390625 701.34375 327.703125 702.167969 C 321.015625 702.992188 314.308594 703.605469 307.585938 704.011719 C 300.859375 704.414062 294.125 704.601562 287.386719 704.582031 C 280.652344 704.558594 273.921875 704.328125 267.195312 703.882812 C 260.472656 703.4375 253.769531 702.78125 247.089844 701.914062 C 240.40625 701.046875 233.757812 699.972656 227.144531 698.6875 C 220.53125 697.402344 213.964844 695.910156 207.445312 694.210938 C 200.921875 692.511719 194.464844 690.613281 188.0625 688.507812 C 181.664062 686.402344 175.335938 684.097656 169.078125 681.59375 C 162.824219 679.089844 156.652344 676.394531 150.566406 673.503906 C 259.089844 612.117188 327.515625 493.515625 325.726562 368.558594 C 325.589844 361.5625 325.242188 354.578125 324.683594 347.601562 C 324.128906 340.625 323.359375 333.671875 322.382812 326.742188 C 321.40625 319.8125 320.21875 312.921875 318.824219 306.0625 C 317.433594 299.203125 315.832031 292.394531 314.03125 285.632812 C 312.226562 278.871094 310.21875 272.167969 308.011719 265.527344 C 305.800781 258.886719 303.394531 252.320312 300.789062 245.824219 C 298.183594 239.328125 295.386719 232.917969 292.394531 226.589844 C 289.402344 220.265625 286.222656 214.035156 282.855469 207.898438 C 279.488281 201.761719 275.9375 195.734375 272.207031 189.8125 C 268.476562 183.894531 264.570312 178.089844 260.488281 172.402344 C 256.40625 166.71875 252.15625 161.160156 247.742188 155.730469 C 243.324219 150.300781 238.746094 145.011719 234.011719 139.859375 C 229.277344 134.703125 224.386719 129.699219 219.351562 124.839844 C 214.3125 119.980469 209.132812 115.277344 203.808594 110.730469 C 198.488281 106.1875 193.035156 101.804688 187.449219 97.585938 C 181.863281 93.367188 176.152344 89.324219 170.324219 85.449219 C 188.441406 78.25 207.066406 72.761719 226.195312 68.984375 C 245.324219 65.207031 264.636719 63.203125 284.132812 62.976562 L 288.671875 62.976562 C 463.242188 62.976562 606.953125 204.425781 609.488281 379.183594 C 609.4375 380.703125 609.488281 382.226562 609.488281 383.800781 Z M 609.488281 383.800781 " fill-opacity="1" fill-rule="nonzero"/></g></svg>